<svg width="34" height="34" viewBox="0 0 34 34" fill="none" xmlns="http://www.w3.org/2000/svg">
<path d="M15.356 3.79534L15.356 3.79534C15.6071 3.66978 15.9124 3.77156 16.038 4.02268L16.8211 5.5889L17 5.94666L17.1789 5.5889L17.962 4.02268C18.0876 3.77156 18.3929 3.66978 18.644 3.79534L18.7334 3.61645L18.644 3.79534C18.8951 3.92088 18.9969 4.22622 18.8713 4.47733L19.0502 4.56678L18.8713 4.47734L17.6154 6.98925L17.5679 7.0842L17.62 7.17674L28.7788 27.0147L28.8361 27.1167H28.9531H30.4583C30.739 27.1167 30.9666 27.3443 30.9666 27.625C30.9666 27.9057 30.739 28.1333 30.4583 28.1333H3.54165C3.26092 28.1333 3.03331 27.9057 3.03331 27.625C3.03331 27.3443 3.26092 27.1167 3.54165 27.1167H5.04685H5.16382L5.22117 27.0147L16.38 7.17674L16.432 7.0842L16.3845 6.98925L15.1287 4.47734L15.1287 4.47733C15.0031 4.22622 15.1049 3.92088 15.356 3.79534ZM20.9592 27.0174L21.0171 27.1167H21.132H27.3278H27.6697L27.5021 26.8186L17.1743 8.45823L17 8.14834L16.8257 8.45823L6.49795 26.8186L6.3303 27.1167H6.67227H12.868H12.9829L13.0408 27.0174L15.949 22.0319C16.4185 21.2271 17.5814 21.2271 18.0509 22.0319L20.9592 27.0174ZM19.4919 27.1167H19.8401L19.6647 26.8159L17.1727 22.5441L17 22.2479L16.8272 22.5441L14.3353 26.8159L14.1599 27.1167H14.5081H19.4919Z" fill="black" stroke="white" stroke-width="0.4"/>
</svg>
