<svg width="34" height="34" viewBox="0 0 34 34" fill="none" xmlns="http://www.w3.org/2000/svg">
<g clip-path="url(#clip0_12_1193)">
<path d="M8.77627 10.0247C9.259 10.0257 9.73118 9.88348 10.133 9.61595C10.5348 9.34841 10.8482 8.96763 11.0334 8.52185C11.2186 8.07607 11.2673 7.58534 11.1734 7.11184C11.0795 6.63833 10.8472 6.20336 10.5058 5.86201C10.1645 5.52067 9.7295 5.28833 9.25599 5.19441C8.78249 5.10049 8.29176 5.14923 7.84598 5.33444C7.40019 5.51966 7.01942 5.83303 6.75188 6.23484C6.48435 6.63665 6.34209 7.10883 6.34315 7.59156C6.34455 8.23643 6.60135 8.85449 7.05734 9.31049C7.51334 9.76648 8.1314 10.0233 8.77627 10.0247ZM8.77627 5.67906C9.15453 5.67906 9.52429 5.79122 9.8388 6.00137C10.1533 6.21152 10.3984 6.51021 10.5432 6.85968C10.6879 7.20914 10.7258 7.59368 10.652 7.96467C10.5782 8.33566 10.3961 8.67643 10.1286 8.9439C9.86114 9.21137 9.52037 9.39352 9.14938 9.46731C8.77839 9.5411 8.39385 9.50323 8.04439 9.35848C7.69492 9.21372 7.39623 8.96859 7.18609 8.65409C6.97594 8.33958 6.86377 7.96981 6.86377 7.59156C6.86377 7.08433 7.06527 6.59788 7.42393 6.23922C7.78259 5.88055 8.26904 5.67906 8.77627 5.67906Z" fill="black"/>
<path d="M34 10.0034C34 8.80019 33.522 7.64622 32.6712 6.79539C31.8204 5.94456 30.6664 5.46657 29.4631 5.46657C28.2599 5.46657 27.1059 5.94456 26.2551 6.79539C25.4043 7.64622 24.9263 8.80019 24.9263 10.0034C24.9378 10.3954 25.0058 10.7837 25.1281 11.1563L19.6563 13.2122L12.6066 10.2956C12.996 9.5242 13.2357 8.68598 13.3131 7.82532C13.2568 6.66143 12.7547 5.56385 11.9111 4.76007C11.0674 3.95629 9.94683 3.50793 8.78157 3.50793C7.61632 3.50793 6.49574 3.95629 5.65208 4.76007C4.80843 5.56385 4.30639 6.66143 4.25001 7.82532C4.25001 8.67001 4.78126 9.95032 5.42407 11.2731L0.175324 13.1006C0.123515 13.1168 0.0783784 13.1494 0.0467459 13.1935C0.0151133 13.2376 -0.00129282 13.2908 1.10896e-05 13.345V30.4513C0.000192043 30.493 0.0104234 30.5341 0.029841 30.5711C0.0492586 30.6081 0.0772921 30.6399 0.111574 30.6638C0.154765 30.6952 0.206902 30.712 0.260324 30.7116C0.290177 30.7171 0.320782 30.7171 0.350636 30.7116L10.1309 27.1469L19.6563 30.6956C19.7165 30.7167 19.782 30.7167 19.8422 30.6956L29.5534 27.0938C29.6119 27.0791 29.6634 27.0446 29.6993 26.9961C29.7351 26.9477 29.7531 26.8883 29.75 26.8281V18.5938C30.2069 17.8978 34 12.3144 34 10.0034ZM29.4631 5.98719C30.526 5.99141 31.544 6.41623 32.2946 7.16882C33.0452 7.92141 33.4674 8.94054 33.4688 10.0034C33.4688 11.9584 30.3131 16.7716 29.4525 18.0519C28.7353 16.9894 26.451 13.4938 25.6913 11.22C25.6888 11.2113 25.6888 11.2021 25.6913 11.1934C25.5511 10.8148 25.4687 10.4172 25.4469 10.0141C25.4462 9.48595 25.5495 8.96286 25.751 8.47468C25.9524 7.98649 26.2481 7.54277 26.621 7.16884C26.994 6.79491 27.4369 6.4981 27.9246 6.29535C28.4122 6.0926 28.935 5.98789 29.4631 5.98719ZM8.77626 3.81438C9.84052 3.81438 10.8613 4.23679 11.6143 4.98883C12.3673 5.74088 12.7911 6.76106 12.7925 7.82532C12.6976 8.70087 12.4362 9.55019 12.0222 10.3275C11.0701 12.2465 9.98731 14.0978 8.78157 15.8684C7.79229 14.4013 6.87738 12.8853 6.04032 11.3263C5.31251 9.97157 4.78126 8.64876 4.78126 7.82532C4.78265 6.76473 5.20349 5.74776 5.95194 4.99632C6.70039 4.24488 7.71569 3.81999 8.77626 3.81438ZM19.736 30.1697L10.2213 26.6263C10.1629 26.6052 10.099 26.6052 10.0406 26.6263L0.531261 30.0741V13.5309L5.66845 11.7459C6.54919 13.3704 7.51565 14.9469 8.56376 16.4688C8.58763 16.503 8.6194 16.5311 8.65639 16.5505C8.69337 16.5699 8.73449 16.5801 8.77626 16.5803C8.81877 16.5801 8.86064 16.5699 8.89848 16.5505C8.93632 16.5311 8.96907 16.5031 8.99407 16.4688C10.257 14.6426 11.3913 12.7308 12.3888 10.7472L19.5341 13.7116C19.5673 13.7195 19.6018 13.7195 19.635 13.7116C19.6649 13.7166 19.6954 13.7166 19.7253 13.7116L25.2928 11.5866C26.2544 14.2428 28.8097 17.9616 29.2028 18.5566V26.6475L19.736 30.1697Z" fill="black"/>
<path d="M29.4631 12.2187C29.9456 12.2187 30.4173 12.0756 30.8184 11.8074C31.2195 11.5393 31.532 11.1581 31.7164 10.7122C31.9008 10.2664 31.9488 9.77579 31.8543 9.30264C31.7598 8.82948 31.527 8.39501 31.1855 8.0542C30.8439 7.71339 30.4089 7.48157 29.9356 7.38808C29.4622 7.2946 28.9717 7.34364 28.5263 7.52902C28.0808 7.71439 27.7003 8.02776 27.433 8.42946C27.1657 8.83115 27.0236 9.30312 27.0247 9.78562C27.0247 10.1056 27.0878 10.4224 27.2104 10.718C27.333 11.0135 27.5127 11.282 27.7392 11.508C27.9657 11.734 28.2345 11.9131 28.5304 12.0351C28.8262 12.157 29.1431 12.2194 29.4631 12.2187ZM29.4631 7.87312C29.8414 7.87312 30.2111 7.98529 30.5256 8.19544C30.8401 8.40559 31.0853 8.70428 31.23 9.05374C31.3748 9.40321 31.4126 9.78775 31.3389 10.1587C31.2651 10.5297 31.0829 10.8705 30.8154 11.138C30.548 11.4054 30.2072 11.5876 29.8362 11.6614C29.4652 11.7352 29.0807 11.6973 28.7312 11.5525C28.3818 11.4078 28.0831 11.1627 27.8729 10.8482C27.6628 10.5336 27.5506 10.1639 27.5506 9.78562C27.5478 9.53269 27.5952 9.28171 27.69 9.04721C27.7849 8.81272 27.9253 8.59937 28.1032 8.41952C28.2811 8.23968 28.4928 8.0969 28.7263 7.99946C28.9597 7.90202 29.2102 7.85186 29.4631 7.85187V7.87312Z" fill="black"/>
<path d="M5.46657 20.4637L4.64313 20.9366L4.18626 20.1875C4.15033 20.1283 4.09236 20.0858 4.02511 20.0694C3.95786 20.053 3.88684 20.0639 3.82766 20.0998C3.76849 20.1358 3.72601 20.1937 3.70957 20.261C3.69313 20.3282 3.70408 20.3993 3.74001 20.4584L4.18626 21.1916L3.29376 21.7228C3.24234 21.7508 3.20187 21.7954 3.1789 21.8492C3.15592 21.9031 3.15177 21.9631 3.16713 22.0196C3.18249 22.0761 3.21644 22.1258 3.26352 22.1607C3.3106 22.1955 3.36804 22.2134 3.42657 22.2116C3.47177 22.2118 3.51606 22.1988 3.55407 22.1744L4.46251 21.6431L4.93532 22.4187C4.95967 22.4558 4.99275 22.4864 5.03165 22.5077C5.07055 22.529 5.11409 22.5404 5.15844 22.5409C5.20709 22.542 5.25502 22.5291 5.29657 22.5037C5.35509 22.4665 5.39674 22.4079 5.41262 22.3404C5.4285 22.2729 5.41736 22.2019 5.38157 22.1425L4.91407 21.3828L5.72688 20.9206C5.78982 20.8877 5.83732 20.8315 5.85918 20.7639C5.88104 20.6963 5.8755 20.6229 5.84376 20.5594C5.82568 20.5279 5.80146 20.5004 5.77254 20.4785C5.74362 20.4565 5.71059 20.4406 5.67541 20.4317C5.64023 20.4228 5.60361 20.421 5.56774 20.4265C5.53186 20.432 5.49746 20.4447 5.46657 20.4637Z" fill="black"/>
<path d="M10.0937 22.0522C9.29911 22.2776 8.44761 22.1802 7.72437 21.7813C7.66625 21.7445 7.59611 21.7317 7.52873 21.7455C7.46136 21.7594 7.40199 21.7989 7.36312 21.8556C7.34422 21.8842 7.33115 21.9162 7.32466 21.9499C7.31817 21.9835 7.31838 22.0181 7.32529 22.0517C7.3322 22.0853 7.34567 22.1171 7.36493 22.1455C7.38418 22.1738 7.40884 22.1981 7.4375 22.2169C7.96999 22.5281 8.57948 22.6828 9.19593 22.6631C9.54134 22.6631 9.88552 22.6221 10.2212 22.5409C10.2881 22.5246 10.3457 22.4824 10.3815 22.4237C10.4174 22.365 10.4285 22.2944 10.4125 22.2275C10.4033 22.1949 10.3878 22.1644 10.3667 22.1379C10.3457 22.1114 10.3196 22.0893 10.2899 22.073C10.2602 22.0567 10.2276 22.0464 10.1939 22.0429C10.1602 22.0393 10.1262 22.0425 10.0937 22.0522Z" fill="black"/>
<path d="M14.28 19.72C14.2158 19.6932 14.1437 19.6927 14.0791 19.7185C14.0146 19.7444 13.9627 19.7945 13.9347 19.8581C13.4942 20.7454 12.7354 21.434 11.8097 21.7866C11.7781 21.8003 11.7497 21.8202 11.7261 21.8452C11.7025 21.8702 11.6842 21.8998 11.6723 21.932C11.6604 21.9643 11.6551 21.9986 11.6568 22.033C11.6585 22.0673 11.6671 22.1009 11.6822 22.1319C11.7024 22.1771 11.7352 22.2157 11.7766 22.243C11.818 22.2703 11.8663 22.2852 11.9159 22.2859C11.9545 22.2847 11.9925 22.2756 12.0275 22.2594C13.0783 21.8587 13.9382 21.0747 14.434 20.0653C14.4468 20.0325 14.453 19.9976 14.4522 19.9624C14.4513 19.9272 14.4435 19.8926 14.4292 19.8604C14.4149 19.8283 14.3943 19.7994 14.3687 19.7753C14.3431 19.7511 14.3129 19.7324 14.28 19.72Z" fill="black"/>
<path d="M17.9722 16.9256C16.4581 16.5803 15.1353 18.2272 15.0769 18.3016C15.0555 18.3284 15.0397 18.3592 15.0302 18.3921C15.0208 18.4251 15.018 18.4596 15.0219 18.4937C15.0259 18.5277 15.0365 18.5607 15.0532 18.5906C15.07 18.6206 15.0924 18.6469 15.1194 18.6681C15.1668 18.7037 15.2248 18.7224 15.284 18.7213C15.3227 18.7217 15.361 18.7133 15.396 18.6967C15.431 18.6802 15.4617 18.6558 15.4859 18.6256C15.4859 18.6256 16.6653 17.17 17.8553 17.4356C17.8888 17.4442 17.9238 17.4459 17.958 17.4406C17.9922 17.4353 18.0249 17.4231 18.0542 17.4047C18.0836 17.3863 18.1088 17.3621 18.1285 17.3337C18.1482 17.3052 18.1619 17.273 18.1687 17.2391C18.1766 17.2056 18.1777 17.1709 18.1721 17.1369C18.1664 17.103 18.1541 17.0705 18.1358 17.0414C18.1175 17.0122 18.0937 16.987 18.0656 16.9671C18.0375 16.9472 18.0057 16.9331 17.9722 16.9256Z" fill="black"/>
<path d="M22.2434 18.6203L19.7625 17.2125C19.7018 17.1776 19.6299 17.1681 19.5622 17.186C19.4946 17.2039 19.4367 17.2478 19.4013 17.3081C19.3843 17.3381 19.3735 17.3711 19.3695 17.4053C19.3654 17.4394 19.3681 17.474 19.3775 17.5071C19.3869 17.5402 19.4027 17.5712 19.4241 17.5981C19.4455 17.625 19.4721 17.6474 19.5022 17.6641L21.9884 19.0719C22.0265 19.0963 22.0707 19.1093 22.1159 19.1091C22.174 19.1097 22.2306 19.0908 22.2767 19.0556C22.3229 19.0203 22.3559 18.9707 22.3705 18.9145C22.3852 18.8583 22.3807 18.7988 22.3576 18.7455C22.3346 18.6922 22.2944 18.6481 22.2434 18.6203Z" fill="black"/>
<path d="M24.9103 19.04C24.6308 19.04 24.3576 19.1229 24.1252 19.2782C23.8928 19.4334 23.7117 19.6541 23.6048 19.9124C23.4978 20.1706 23.4698 20.4547 23.5243 20.7288C23.5789 21.0029 23.7135 21.2547 23.9111 21.4524C24.1087 21.65 24.3605 21.7846 24.6346 21.8391C24.9087 21.8936 25.1929 21.8656 25.4511 21.7587C25.7093 21.6517 25.93 21.4706 26.0853 21.2382C26.2406 21.0058 26.3234 20.7326 26.3234 20.4531C26.3234 20.0783 26.1746 19.7189 25.9095 19.4539C25.6445 19.1889 25.2851 19.04 24.9103 19.04ZM24.9103 21.3403C24.7351 21.3393 24.5641 21.2863 24.4189 21.1882C24.2737 21.0901 24.1608 20.9512 24.0945 20.789C24.0281 20.6268 24.0113 20.4486 24.0461 20.2768C24.081 20.1051 24.1659 19.9475 24.2902 19.8239C24.4145 19.7004 24.5725 19.6164 24.7445 19.5826C24.9164 19.5488 25.0946 19.5667 25.2564 19.634C25.4182 19.7013 25.5564 19.815 25.6537 19.9608C25.7509 20.1066 25.8028 20.2779 25.8028 20.4531C25.8028 20.5701 25.7797 20.6859 25.7348 20.7939C25.6899 20.9019 25.624 20.9999 25.5411 21.0824C25.4581 21.1648 25.3597 21.23 25.2515 21.2743C25.1432 21.3186 25.0273 21.341 24.9103 21.3403Z" fill="black"/>
</g>
<defs>
<clipPath id="clip0_12_1193">
<rect width="34" height="34" fill="white"/>
</clipPath>
</defs>
</svg>
