<svg width="34" height="34" viewBox="0 0 34 34" fill="none" xmlns="http://www.w3.org/2000/svg">
<path d="M30.5862 18.411L17.1881 5.01287C17.138 4.96343 17.0704 4.93571 17 4.93571C16.9296 4.93571 16.8621 4.96343 16.812 5.01287L3.41384 18.411C3.36439 18.4611 3.33667 18.5287 3.33667 18.5991C3.33667 18.6695 3.36439 18.737 3.41384 18.7871L4.16821 19.5415C4.21832 19.5909 4.28588 19.6187 4.35627 19.6187C4.42667 19.6187 4.49423 19.5909 4.54434 19.5415L5.0469 19.0379V28.7991C5.0469 28.8695 5.07488 28.9371 5.1247 28.9869C5.17451 29.0367 5.24207 29.0647 5.31252 29.0647H28.6875C28.758 29.0647 28.8255 29.0367 28.8753 28.9869C28.9252 28.9371 28.9531 28.8695 28.9531 28.7991V19.0379L29.4557 19.5415C29.5057 19.5912 29.5733 19.6191 29.6438 19.6191C29.7143 19.6191 29.7819 19.5912 29.8318 19.5415L30.5862 18.7871C30.6357 18.737 30.6634 18.6695 30.6634 18.5991C30.6634 18.5287 30.6357 18.4611 30.5862 18.411ZM7.1719 28.5334V20.5647H10.8906V28.5334H7.1719ZM24.0943 18.7404L18.2506 12.8966C18.2006 12.8469 18.133 12.819 18.0625 12.819C17.992 12.819 17.9244 12.8469 17.8745 12.8966L12.0307 18.7404L11.7938 18.9773L11.4155 18.5991L18.0625 11.9521L24.7095 18.5991L24.3313 18.9773L24.0943 18.7404ZM12.4844 28.5334V19.0379L18.0625 13.4598L23.6406 19.0379V28.5334H12.4844ZM28.4219 28.5334H24.1719V19.55C24.2196 19.5944 24.2829 19.618 24.348 19.6158C24.4131 19.6136 24.4747 19.5858 24.5193 19.5383L25.2737 18.7839C25.3232 18.7338 25.3509 18.6663 25.3509 18.5959C25.3509 18.5255 25.3232 18.4579 25.2737 18.4078L18.2506 11.3847C18.2005 11.3352 18.1329 11.3075 18.0625 11.3075C17.9921 11.3075 17.9246 11.3352 17.8745 11.3847L10.8513 18.4078C10.8019 18.4579 10.7742 18.5255 10.7742 18.5959C10.7742 18.6663 10.8019 18.7338 10.8513 18.7839L11.6057 19.5383C11.6521 19.5825 11.7131 19.6081 11.7772 19.6103C11.8413 19.6124 11.9039 19.591 11.9531 19.55V28.5302H11.4219V20.2959C11.4219 20.2254 11.3939 20.1579 11.3441 20.108C11.2943 20.0582 11.2267 20.0302 11.1563 20.0302H6.90627C6.83582 20.0302 6.76826 20.0582 6.71845 20.108C6.66863 20.1579 6.64065 20.2254 6.64065 20.2959V28.5302H5.57815V18.5066L17 7.08475L28.4219 18.5066V28.5334ZM29.6438 18.9773L28.8756 18.2091L17.1881 6.52162C17.1381 6.47192 17.0705 6.44403 17 6.44403C16.9295 6.44403 16.8619 6.47192 16.812 6.52162L5.12446 18.2091L4.35627 18.9773L3.97802 18.5991L17 5.57706L30.022 18.5991L29.6438 18.9773Z" fill="black"/>
<path d="M17.5312 17.9084H15.4062C15.3358 17.9084 15.2682 17.9364 15.2184 17.9862C15.1686 18.0361 15.1406 18.1036 15.1406 18.1741V20.2991C15.1406 20.3695 15.1686 20.4371 15.2184 20.4869C15.2682 20.5367 15.3358 20.5647 15.4062 20.5647H17.5312C17.6017 20.5647 17.6693 20.5367 17.7191 20.4869C17.7689 20.4371 17.7969 20.3695 17.7969 20.2991V18.1741C17.7969 18.1036 17.7689 18.0361 17.7191 17.9862C17.6693 17.9364 17.6017 17.9084 17.5312 17.9084ZM17.2656 20.0334H15.6719V18.4397H17.2656V20.0334Z" fill="black"/>
<path d="M17.5312 21.0959H15.4062C15.3358 21.0959 15.2682 21.1239 15.2184 21.1737C15.1686 21.2236 15.1406 21.2911 15.1406 21.3616V23.4866C15.1406 23.557 15.1686 23.6246 15.2184 23.6744C15.2682 23.7242 15.3358 23.7522 15.4062 23.7522H17.5312C17.6017 23.7522 17.6693 23.7242 17.7191 23.6744C17.7689 23.6246 17.7969 23.557 17.7969 23.4866V21.3616C17.7969 21.2911 17.7689 21.2236 17.7191 21.1737C17.6693 21.1239 17.6017 21.0959 17.5312 21.0959ZM17.2656 23.2209H15.6719V21.6272H17.2656V23.2209Z" fill="black"/>
<path d="M20.7188 21.0959H18.5938C18.5233 21.0959 18.4557 21.1239 18.4059 21.1737C18.3561 21.2236 18.3281 21.2911 18.3281 21.3616V23.4866C18.3281 23.557 18.3561 23.6246 18.4059 23.6744C18.4557 23.7242 18.5233 23.7522 18.5938 23.7522H20.7188C20.7892 23.7522 20.8568 23.7242 20.9066 23.6744C20.9564 23.6246 20.9844 23.557 20.9844 23.4866V21.3616C20.9844 21.2911 20.9564 21.2236 20.9066 21.1737C20.8568 21.1239 20.7892 21.0959 20.7188 21.0959ZM20.4531 23.2209H18.8594V21.6272H20.4531V23.2209Z" fill="black"/>
<path d="M20.7188 17.9084H18.5938C18.5233 17.9084 18.4557 17.9364 18.4059 17.9862C18.3561 18.0361 18.3281 18.1036 18.3281 18.1741V20.2991C18.3281 20.3695 18.3561 20.4371 18.4059 20.4869C18.4557 20.5367 18.5233 20.5647 18.5938 20.5647H20.7188C20.7892 20.5647 20.8568 20.5367 20.9066 20.4869C20.9564 20.4371 20.9844 20.3695 20.9844 20.2991V18.1741C20.9844 18.1036 20.9564 18.0361 20.9066 17.9862C20.8568 17.9364 20.7892 17.9084 20.7188 17.9084ZM20.4531 20.0334H18.8594V18.4397H20.4531V20.0334Z" fill="black"/>
</svg>
