<svg width="40" height="40" viewBox="0 0 40 40" fill="none" xmlns="http://www.w3.org/2000/svg">
<g clip-path="url(#clip0_2_1042)">
<path d="M33.4712 20.7355C34.1556 20.7355 34.7104 20.1807 34.7104 19.4963C34.7104 18.8119 34.1556 18.2571 33.4712 18.2571C32.7868 18.2571 32.2319 18.8119 32.2319 19.4963C32.2319 20.1807 32.7868 20.7355 33.4712 20.7355Z" fill="black"/>
<path d="M36.4687 10.9885H3.63644C3.32042 10.9885 3.06421 11.2447 3.06421 11.5607C3.06421 11.8767 3.32042 12.1329 3.63644 12.1329H36.4687C36.7847 12.1329 37.0409 11.8767 37.0409 11.5607C37.0409 11.2447 36.7847 10.9885 36.4687 10.9885Z" fill="black"/>
<path d="M36.4687 13.2297H3.63644C3.32042 13.2297 3.06421 13.4859 3.06421 13.802C3.06421 14.118 3.32042 14.3742 3.63644 14.3742H36.4687C36.7847 14.3742 37.0409 14.118 37.0409 13.802C37.0409 13.4859 36.7847 13.2297 36.4687 13.2297Z" fill="black"/>
<path d="M36.4688 8.5509H3.6365C1.91835 8.5509 0.520508 9.94875 0.520508 11.6669V19.8194C0.520508 21.5377 1.91835 22.9355 3.6365 22.9355H36.4688C38.187 22.9355 39.5848 21.5377 39.5848 19.8194V11.6669C39.5848 9.94867 38.187 8.5509 36.4688 8.5509ZM35.8965 21.791H31.0457V17.6203C31.0457 17.3892 31.2337 17.2012 31.4648 17.2012H35.4774C35.7085 17.2012 35.8965 17.3892 35.8965 17.6203V21.791ZM38.4404 19.8194C38.4404 20.7076 37.8499 21.4602 37.041 21.706V17.6204C37.041 16.7582 36.3396 16.0568 35.4774 16.0568H31.4648C30.6026 16.0568 29.9012 16.7582 29.9012 17.6204V21.791H28.9379V17.6204C28.9379 16.7582 28.2365 16.0568 27.3743 16.0568H24.4595C24.1434 16.0568 23.8872 16.313 23.8872 16.6291C23.8872 16.9451 24.1434 17.2013 24.4595 17.2013H27.3743C27.6054 17.2013 27.7934 17.3893 27.7934 17.6204V21.791H4.20873V17.6204C4.20873 17.3893 4.39673 17.2013 4.62791 17.2013H22.1706C22.4866 17.2013 22.7428 16.9451 22.7428 16.6291C22.7428 16.313 22.4866 16.0568 22.1706 16.0568H4.62783C3.76567 16.0568 3.06419 16.7582 3.06419 17.6204V21.706C2.25544 21.4602 1.66497 20.7076 1.66497 19.8194V11.6669C1.66497 10.5797 2.54941 9.69537 3.6365 9.69537H36.4688C37.5559 9.69537 38.4404 10.5798 38.4404 11.6669V19.8194Z" fill="black"/>
<path d="M8.99225 27.7378C8.49457 26.8703 8.49457 25.7926 8.99225 24.9252C9.1495 24.6509 9.05474 24.3013 8.78068 24.1439C8.50662 23.9866 8.15687 24.0814 7.99955 24.3555C7.30028 25.5743 7.30028 27.0885 7.99955 28.3073C8.49724 29.1747 8.49724 30.2525 7.99955 31.1199C7.84222 31.394 7.93698 31.7437 8.21112 31.901C8.48182 32.0564 8.83699 31.96 8.99225 31.6895C9.69152 30.4707 9.69152 28.9565 8.99225 27.7378Z" fill="black"/>
<path d="M14.0723 27.7377C13.5745 26.8701 13.5745 25.7924 14.0723 24.925C14.2295 24.651 14.1348 24.3012 13.8607 24.1439C13.5865 23.9866 13.2368 24.0813 13.0796 24.3554C12.3802 25.5742 12.3802 27.0884 13.0796 28.3071C13.5772 29.1746 13.5772 30.2523 13.0796 31.1198C12.9222 31.3939 13.017 31.7436 13.2911 31.9009C13.5618 32.0562 13.917 31.9599 14.0723 31.6893C14.7715 30.4706 14.7715 28.9564 14.0723 27.7377Z" fill="black"/>
<path d="M19.1523 27.7378C18.6546 26.8703 18.6546 25.7926 19.1523 24.9252C19.3096 24.6509 19.2149 24.3013 18.9407 24.1439C18.6667 23.9866 18.3169 24.0814 18.1596 24.3555C17.4603 25.5743 17.4603 27.0885 18.1596 28.3073C18.6573 29.1747 18.6573 30.2525 18.1596 31.1199C18.0023 31.394 18.097 31.7437 18.3712 31.901C18.6419 32.0564 18.997 31.96 19.1523 31.6895C19.8516 30.4707 19.8516 28.9565 19.1523 27.7378Z" fill="black"/>
<path d="M24.2323 27.7377C23.7346 26.8702 23.7346 25.7925 24.2323 24.9251C24.3897 24.6509 24.2949 24.3013 24.0208 24.1439C23.7467 23.9866 23.3969 24.0814 23.2397 24.3555C22.5404 25.5743 22.5404 27.0885 23.2397 28.3073C23.7374 29.1747 23.7374 30.2524 23.2397 31.1198C23.0823 31.394 23.1771 31.7437 23.4512 31.901C23.7218 32.0563 24.077 31.96 24.2323 31.6895C24.9316 30.4707 24.9316 28.9565 24.2323 27.7377Z" fill="black"/>
</g>
<defs>
<clipPath id="clip0_2_1042">
<rect width="39.0643" height="39.0643" fill="white" transform="translate(0.520508 0.730957)"/>
</clipPath>
</defs>
</svg>
