<svg width="48" height="43" viewBox="0 0 48 43" fill="none" xmlns="http://www.w3.org/2000/svg">
<g clip-path="url(#clip0_2_998)" filter="url(#filter0_d_2_998)">
<path d="M34.6983 10.8453C34.309 10.1668 34.309 9.32391 34.6983 8.6454C34.8557 8.37134 34.7609 8.02151 34.4869 7.86419C34.2126 7.70694 33.8629 7.80162 33.7056 8.07576C33.1147 9.10562 33.1147 10.3851 33.7056 11.4149C34.0948 12.0933 34.0948 12.9364 33.7056 13.6148C33.5482 13.889 33.643 14.2387 33.9171 14.396C34.1878 14.5512 34.5429 14.4551 34.6983 14.1844C35.2893 13.1546 35.2893 11.8751 34.6983 10.8453Z" fill="black"/>
<path d="M29.8069 9.27171C29.4175 8.59327 29.4175 7.75026 29.8069 7.0719C29.9642 6.79776 29.8694 6.44802 29.5954 6.29069C29.3212 6.13337 28.9714 6.22805 28.8142 6.50219C28.2232 7.53205 28.2232 8.81148 28.8142 9.84134C29.2034 10.5198 29.2034 11.3627 28.8141 12.0412C28.6568 12.3154 28.7515 12.6651 29.0257 12.8224C29.2964 12.9777 29.6515 12.8816 29.8069 12.6109C30.3977 11.581 30.3977 10.3016 29.8069 9.27171Z" fill="black"/>
<path d="M24.9153 10.8453C24.5259 10.1668 24.5259 9.32391 24.9153 8.6454C25.0726 8.37126 24.9779 8.02151 24.7037 7.86419C24.4297 7.70694 24.0798 7.80162 23.9225 8.07576C23.3317 9.10562 23.3317 10.3851 23.9225 11.4149C24.3118 12.0933 24.3118 12.9364 23.9225 13.6148C23.7652 13.889 23.8599 14.2387 24.1341 14.396C24.4049 14.5513 24.7598 14.4553 24.9153 14.1844C25.5061 13.1546 25.5061 11.8751 24.9153 10.8453Z" fill="black"/>
<path d="M38.3528 17.8696C38.3287 16.8063 37.4568 15.9485 36.3879 15.9485H22.2443C21.1601 15.9485 20.2782 16.8305 20.2782 17.9146V20.0612C19.3965 19.2975 18.1636 18.91 16.6037 18.91C14.8289 18.91 13.4628 19.4337 12.5823 20.4054C10.5244 20.5188 8.91151 20.9857 7.78781 21.7965C6.80815 22.5035 6.24408 23.4394 6.13704 24.5217C4.44125 27.9025 4.15742 30.9617 5.36216 32.9269C6.01931 33.9989 7.09037 34.639 8.22774 34.6391C9.44956 34.6391 10.358 34.0264 11.1365 33.1489C11.6726 32.5445 12.2271 31.9201 13.6761 31.5195C14.1242 31.5874 14.5801 31.6304 15.0414 31.6473C15.5552 32.0293 16.0855 32.2517 16.6035 32.2517C17.108 32.2517 17.6405 32.0426 18.1723 31.6487C18.6398 31.6314 19.0947 31.5878 19.5355 31.5208C20.9812 31.9214 21.535 32.5451 22.0706 33.1488C22.8275 34.0021 23.8035 34.6391 24.9798 34.6391C26.0754 34.6391 27.1086 34.0438 27.7704 33.0416H31.8789C34.6918 33.0416 37.0902 31.2382 37.9818 28.7272H38.26C41.254 28.7272 43.6899 26.2913 43.6899 23.2972C43.6901 20.3342 41.3041 17.9195 38.3528 17.8696ZM10.2804 32.3893C9.74117 32.997 9.07601 33.4945 8.22758 33.4945C7.48086 33.4944 6.7922 33.0695 6.33808 32.3288C5.9279 31.6597 5.2262 29.8752 6.46519 26.6042C6.84881 27.5493 7.53938 28.4635 8.4841 29.2567C8.48669 29.2589 8.48936 29.2611 8.49195 29.2633C9.45116 30.0717 10.5829 30.6642 11.7685 31.0642C11.7746 31.0663 11.7805 31.0685 11.7866 31.0705C11.0768 31.4916 10.6506 31.9719 10.2804 32.3893ZM16.6035 31.107C16.3172 31.107 15.9724 30.9402 15.6065 30.6426C15.6049 30.6413 15.6037 30.6397 15.602 30.6383C14.2934 29.5621 13.456 27.8283 12.9769 26.2367C12.8745 25.8961 12.7751 25.4299 12.3393 25.4076C11.4196 25.3604 11.8487 26.5115 12.0003 26.9573C12.134 27.3502 12.2903 27.7351 12.4608 28.1134C12.8212 28.9133 13.2609 29.6847 13.7952 30.382C12.2311 30.1371 10.7015 29.5408 9.44727 28.5643C8.28832 27.6619 7.16659 26.2878 7.26799 24.7302C7.37656 23.0633 9.04107 21.9369 11.8263 21.6163C11.8231 21.6242 11.8204 21.6326 11.8171 21.6406C11.5587 22.2876 11.4505 22.9879 11.4406 23.6823C11.4361 23.9984 11.6887 24.2582 12.0051 24.2626C12.324 24.2674 12.581 24.0146 12.5855 23.6985C12.5984 22.7808 12.8547 22.0349 13.338 21.2684C13.9975 20.4619 15.0877 20.0546 16.6034 20.0546C17.7918 20.0546 19.136 20.3284 19.911 21.3304C21.4405 23.3081 20.3715 26.5157 19.3015 28.4506C18.443 30.0031 17.349 31.107 16.6035 31.107ZM19.4171 30.3813C19.6553 30.0694 19.8888 29.7224 20.1142 29.3412C20.6386 28.4541 21.0537 27.4962 21.3445 26.5076C21.9035 24.607 21.9099 22.9157 21.3806 21.6161C23.7327 21.8868 25.2864 22.7322 25.778 23.9927C25.779 23.9952 25.7798 23.9978 25.7808 24.0005C25.9859 24.5426 25.984 25.1469 25.8363 25.7029C25.5717 26.6997 24.8356 27.7268 23.7597 28.5645C22.8058 29.3071 21.6585 29.8536 20.407 30.1759C20.081 30.26 19.7496 30.3292 19.4171 30.3813ZM27.0102 32.0708C26.6217 32.8539 25.892 33.4946 24.9797 33.4946C24.0888 33.4945 23.4878 33.0218 22.9269 32.3894C22.5565 31.972 22.1304 31.4916 21.4206 31.0705C22.8382 30.5999 24.1103 29.8605 25.107 28.9138C25.854 28.2044 26.4076 27.4119 26.7374 26.6038C27.3685 28.2831 27.84 30.372 27.0102 32.0708ZM37.2092 25.8861C37.2092 26.5941 37.205 27.2792 37.0208 27.9688C36.4035 30.2297 34.3328 31.8971 31.8789 31.8971H28.311C28.3387 31.8096 28.3638 31.7204 28.3872 31.63C28.421 31.5018 28.45 31.3719 28.4745 31.2414C28.742 29.8363 28.6236 27.7224 27.1957 24.7755C27.1544 24.6901 27.1128 24.6046 27.0702 24.5198C26.9899 23.7117 26.6536 22.9858 26.0805 22.3755C26.0763 22.371 26.072 22.3666 26.0678 22.3622C25.1749 21.4182 23.9023 20.9224 22.6543 20.6611C22.2636 20.5793 21.8683 20.5181 21.4715 20.4743C21.4551 20.4724 21.4392 20.4702 21.4228 20.4685V17.9147H21.4228C21.4228 17.4618 21.7913 17.0933 22.2442 17.0933H36.3878C36.8408 17.0933 37.2092 17.4618 37.2092 17.9147V25.8861ZM38.3538 21.2832C39.4223 21.3324 40.2764 22.2168 40.2764 23.2973C40.2764 24.3777 39.4223 25.2622 38.3538 25.3114V21.2832ZM38.2736 27.5826C38.2902 27.5825 38.3276 27.129 38.3309 27.0904C38.3486 26.8794 38.3539 26.6686 38.3539 26.4569C40.0537 26.4072 41.4211 25.0089 41.4211 23.2972C41.4211 21.5856 40.0537 20.1873 38.3539 20.1375V19.0128C40.6737 19.0629 42.5454 20.9656 42.5454 23.2972C42.5454 25.6556 40.6302 27.5753 38.2736 27.5826Z" fill="black"/>
</g>
<defs>
<filter id="filter0_d_2_998" x="0.625732" y="0.894714" width="47.0643" height="47.0643" filterUnits="userSpaceOnUse" color-interpolation-filters="sRGB">
<feFlood flood-opacity="0" result="BackgroundImageFix"/>
<feColorMatrix in="SourceAlpha" type="matrix" values="0 0 0 0 0 0 0 0 0 0 0 0 0 0 0 0 0 0 127 0" result="hardAlpha"/>
<feOffset dy="4"/>
<feGaussianBlur stdDeviation="2"/>
<feComposite in2="hardAlpha" operator="out"/>
<feColorMatrix type="matrix" values="0 0 0 0 0 0 0 0 0 0 0 0 0 0 0 0 0 0 0.25 0"/>
<feBlend mode="normal" in2="BackgroundImageFix" result="effect1_dropShadow_2_998"/>
<feBlend mode="normal" in="SourceGraphic" in2="effect1_dropShadow_2_998" result="shape"/>
</filter>
<clipPath id="clip0_2_998">
<rect width="39.0643" height="39.0643" fill="white" transform="translate(4.62573 0.894714)"/>
</clipPath>
</defs>
</svg>
