<svg width="34" height="34" viewBox="0 0 34 34" fill="none" xmlns="http://www.w3.org/2000/svg">
<g clip-path="url(#clip0_12_1153)">
<path d="M31.2535 9.78031C31.6085 9.78031 31.949 9.63927 32.2001 9.3882C32.4512 9.13714 32.5922 8.79662 32.5922 8.44156V8.00594C32.5922 7.65039 32.4513 7.30932 32.2004 7.05742C31.9495 6.80551 31.609 6.66328 31.2535 6.66187H26.5625V0.260312C26.5626 0.193948 26.5374 0.130042 26.492 0.081657C26.4466 0.0332723 26.3844 0.00406303 26.3181 0L7.6819 0C7.61566 0.00406303 7.55347 0.0332723 7.50805 0.081657C7.46263 0.130042 7.4374 0.193948 7.43752 0.260312V6.63531H2.74659C2.39104 6.63672 2.05054 6.77894 1.79962 7.03085C1.54871 7.28276 1.40783 7.62383 1.40784 7.97938V8.415C1.40784 8.77006 1.54888 9.11057 1.79995 9.36164C2.05101 9.6127 2.39153 9.75375 2.74659 9.75375H3.97909V30.8816H2.74659C2.57078 30.8816 2.39669 30.9162 2.23427 30.9835C2.07184 31.0507 1.92426 31.1494 1.79995 31.2737C1.67563 31.398 1.57702 31.5456 1.50974 31.708C1.44246 31.8704 1.40784 32.0445 1.40784 32.2203V32.6613C1.40784 33.0163 1.54888 33.3568 1.79995 33.6079C2.05101 33.859 2.39153 34 2.74659 34H31.2535C31.6085 34 31.949 33.859 32.2001 33.6079C32.4512 33.3568 32.5922 33.0163 32.5922 32.6613V32.2203C32.5922 31.8653 32.4512 31.5247 32.2001 31.2737C31.949 31.0226 31.6085 30.8816 31.2535 30.8816H30.021V9.78031H31.2535ZM7.96877 0.53125H26.0844V6.66187H7.96877V0.53125ZM1.92846 8.44156V8.00594C1.92846 7.78896 2.01466 7.58086 2.16809 7.42744C2.32151 7.27401 2.52961 7.18781 2.74659 7.18781H31.2535C31.4704 7.18781 31.6785 7.27401 31.832 7.42744C31.9854 7.58086 32.0716 7.78896 32.0716 8.00594V8.44156C32.0716 8.65854 31.9854 8.86664 31.832 9.02006C31.6785 9.17349 31.4704 9.25969 31.2535 9.25969H2.74659C2.52961 9.25969 2.32151 9.17349 2.16809 9.02006C2.01466 8.86664 1.92846 8.65854 1.92846 8.44156ZM32.0716 32.2203V32.6613C32.0674 32.8759 31.9796 33.0805 31.8267 33.2314C31.6739 33.3822 31.4682 33.4674 31.2535 33.4688H2.74659C2.53004 33.4674 2.32275 33.3807 2.16962 33.2276C2.0165 33.0745 1.92985 32.8672 1.92846 32.6506V32.2097C1.92986 31.9936 2.01668 31.7869 2.16996 31.6346C2.32323 31.4823 2.53052 31.3969 2.74659 31.3969H31.2535C31.3613 31.3969 31.4682 31.4182 31.5678 31.4597C31.6674 31.5011 31.7578 31.5618 31.8339 31.6384C31.9099 31.7149 31.97 31.8057 32.0108 31.9056C32.0516 32.0055 32.0723 32.1124 32.0716 32.2203ZM20.2194 24.3312V30.8816H17.4091V24.3312H20.2194ZM16.8885 30.8816H14.0781V24.3312H16.8885V30.8816ZM29.495 30.8816H20.7188V24.0656C20.7188 24.0314 20.712 23.9976 20.699 23.966C20.6859 23.9344 20.6667 23.9057 20.6425 23.8816C20.6184 23.8574 20.5897 23.8382 20.5581 23.8251C20.5265 23.812 20.4926 23.8053 20.4585 23.8053H13.8125C13.7779 23.8046 13.7435 23.8108 13.7113 23.8236C13.6791 23.8363 13.6497 23.8554 13.625 23.8797C13.6003 23.9039 13.5806 23.9328 13.5672 23.9648C13.5538 23.9967 13.5469 24.031 13.5469 24.0656V30.8816H4.51565V9.78031H29.4844L29.495 30.8816Z" fill="black"/>
<path d="M6.90624 15.5922H10.3753C10.4099 15.5922 10.4442 15.5853 10.4762 15.5719C10.5081 15.5585 10.537 15.5388 10.5613 15.5141C10.5855 15.4893 10.6046 15.46 10.6173 15.4278C10.6301 15.3956 10.6363 15.3612 10.6356 15.3266V11.8575C10.6356 11.7885 10.6082 11.7222 10.5594 11.6734C10.5106 11.6246 10.4443 11.5972 10.3753 11.5972H6.90624C6.8372 11.5972 6.77099 11.6246 6.72217 11.6734C6.67335 11.7222 6.64593 11.7885 6.64593 11.8575V15.3266C6.64522 15.3612 6.65143 15.3956 6.6642 15.4278C6.67696 15.46 6.69602 15.4893 6.72027 15.5141C6.74451 15.5388 6.77345 15.5585 6.80538 15.5719C6.83731 15.5853 6.8716 15.5922 6.90624 15.5922ZM7.16655 12.1231H10.115V15.0662H7.17718L7.16655 12.1231Z" fill="black"/>
<path d="M12.665 15.5922H16.1341C16.1687 15.5922 16.203 15.5853 16.235 15.5719C16.2669 15.5585 16.2958 15.5388 16.3201 15.5141C16.3443 15.4893 16.3634 15.46 16.3761 15.4278C16.3889 15.3956 16.3951 15.3612 16.3944 15.3266V11.8575C16.3944 11.7885 16.367 11.7222 16.3182 11.6734C16.2693 11.6246 16.2031 11.5972 16.1341 11.5972H12.665C12.596 11.5972 12.5298 11.6246 12.481 11.6734C12.4321 11.7222 12.4047 11.7885 12.4047 11.8575V15.3266C12.404 15.3612 12.4102 15.3956 12.423 15.4278C12.4358 15.46 12.4548 15.4893 12.4791 15.5141C12.5033 15.5388 12.5322 15.5585 12.5642 15.5719C12.5961 15.5853 12.6304 15.5922 12.665 15.5922ZM12.9253 12.1231H15.8738V15.0662H12.9253V12.1231Z" fill="black"/>
<path d="M18.4131 15.5922H21.8875C21.9222 15.5922 21.9564 15.5853 21.9884 15.5719C22.0203 15.5585 22.0492 15.5388 22.0735 15.5141C22.0977 15.4893 22.1168 15.46 22.1296 15.4278C22.1423 15.3956 22.1485 15.3612 22.1478 15.3266V11.8575C22.1478 11.7885 22.1204 11.7222 22.0716 11.6734C22.0228 11.6246 21.9566 11.5972 21.8875 11.5972H18.4131C18.3441 11.5972 18.2779 11.6246 18.2291 11.6734C18.1803 11.7222 18.1528 11.7885 18.1528 11.8575V15.3266C18.1521 15.3612 18.1583 15.3956 18.1711 15.4278C18.1839 15.46 18.2029 15.4893 18.2272 15.5141C18.2514 15.5388 18.2803 15.5585 18.3123 15.5719C18.3442 15.5853 18.3785 15.5922 18.4131 15.5922ZM18.6788 12.1231H21.6219V15.0662H18.6788V12.1231Z" fill="black"/>
<path d="M24.1666 15.5922H27.625C27.6596 15.5922 27.6939 15.5853 27.7259 15.5719C27.7578 15.5585 27.7867 15.5388 27.811 15.5141C27.8352 15.4893 27.8543 15.46 27.867 15.4278C27.8798 15.3956 27.886 15.3612 27.8853 15.3266V11.8575C27.8853 11.7885 27.8579 11.7222 27.8091 11.6734C27.7602 11.6246 27.694 11.5972 27.625 11.5972H24.1666C24.0975 11.5972 24.0313 11.6246 23.9825 11.6734C23.9337 11.7222 23.9062 11.7885 23.9062 11.8575V15.3266C23.9055 15.3612 23.9117 15.3956 23.9245 15.4278C23.9373 15.46 23.9563 15.4893 23.9806 15.5141C24.0048 15.5388 24.0338 15.5585 24.0657 15.5719C24.0976 15.5853 24.1319 15.5922 24.1666 15.5922ZM24.4375 12.1231H27.3859V15.0662H24.4375V12.1231Z" fill="black"/>
<path d="M6.90625 21.0694H10.3753C10.4443 21.0694 10.5106 21.042 10.5594 20.9931C10.6082 20.9443 10.6356 20.8781 10.6356 20.8091V17.34C10.6356 17.271 10.6082 17.2048 10.5594 17.1559C10.5106 17.1071 10.4443 17.0797 10.3753 17.0797H6.90625C6.83721 17.0797 6.771 17.1071 6.72218 17.1559C6.67336 17.2048 6.64594 17.271 6.64594 17.34V20.8091C6.64594 20.8781 6.67336 20.9443 6.72218 20.9931C6.771 21.042 6.83721 21.0694 6.90625 21.0694ZM7.16656 17.6003H10.115V20.5488H7.17719L7.16656 17.6003Z" fill="black"/>
<path d="M12.665 21.0694H16.134C16.2031 21.0694 16.2693 21.042 16.3181 20.9931C16.3669 20.9443 16.3944 20.8781 16.3944 20.8091V17.34C16.3944 17.271 16.3669 17.2048 16.3181 17.1559C16.2693 17.1071 16.2031 17.0797 16.134 17.0797H12.665C12.5959 17.0797 12.5297 17.1071 12.4809 17.1559C12.4321 17.2048 12.4047 17.271 12.4047 17.34V20.8091C12.4047 20.8781 12.4321 20.9443 12.4809 20.9931C12.5297 21.042 12.5959 21.0694 12.665 21.0694ZM12.9253 17.6003H15.8737V20.5488H12.9253V17.6003Z" fill="black"/>
<path d="M18.4131 21.0694H21.8875C21.9566 21.0694 22.0228 21.042 22.0716 20.9931C22.1204 20.9443 22.1478 20.8781 22.1478 20.8091V17.34C22.1478 17.271 22.1204 17.2048 22.0716 17.1559C22.0228 17.1071 21.9566 17.0797 21.8875 17.0797H18.4131C18.3441 17.0797 18.2779 17.1071 18.2291 17.1559C18.1803 17.2048 18.1528 17.271 18.1528 17.34V20.8091C18.1528 20.8781 18.1803 20.9443 18.2291 20.9931C18.2779 21.042 18.3441 21.0694 18.4131 21.0694ZM18.6788 17.6003H21.6219V20.5488H18.6788V17.6003Z" fill="black"/>
<path d="M24.1666 21.0694H27.625C27.694 21.0694 27.7603 21.042 27.8091 20.9931C27.8579 20.9443 27.8853 20.8781 27.8853 20.8091V17.34C27.8853 17.271 27.8579 17.2048 27.8091 17.1559C27.7603 17.1071 27.694 17.0797 27.625 17.0797H24.1666C24.0975 17.0797 24.0313 17.1071 23.9825 17.1559C23.9337 17.2048 23.9062 17.271 23.9062 17.34V20.8091C23.9062 20.8781 23.9337 20.9443 23.9825 20.9931C24.0313 21.042 24.0975 21.0694 24.1666 21.0694ZM24.4375 17.6003H27.3859V20.5488H24.4375V17.6003Z" fill="black"/>
<path d="M6.90625 27.625H10.3753C10.4443 27.625 10.5106 27.5976 10.5594 27.5488C10.6082 27.4999 10.6356 27.4337 10.6356 27.3647V23.9062C10.6356 23.8372 10.6082 23.771 10.5594 23.7222C10.5106 23.6734 10.4443 23.6459 10.3753 23.6459H6.90625C6.83721 23.6459 6.771 23.6734 6.72218 23.7222C6.67336 23.771 6.64594 23.8372 6.64594 23.9062V27.3753C6.64868 27.4425 6.67731 27.506 6.72584 27.5525C6.77436 27.5991 6.83901 27.6251 6.90625 27.625ZM7.16656 24.1559H10.115V27.0937H7.17719L7.16656 24.1559Z" fill="black"/>
<path d="M24.1666 27.625H27.625C27.694 27.625 27.7603 27.5976 27.8091 27.5488C27.8579 27.4999 27.8853 27.4337 27.8853 27.3647V23.9062C27.8853 23.8372 27.8579 23.771 27.8091 23.7222C27.7603 23.6734 27.694 23.6459 27.625 23.6459H24.1666C24.0975 23.6459 24.0313 23.6734 23.9825 23.7222C23.9337 23.771 23.9062 23.8372 23.9062 23.9062V27.3753C23.909 27.4425 23.9376 27.506 23.9862 27.5525C24.0347 27.5991 24.0993 27.6251 24.1666 27.625ZM24.4375 24.1453H27.3859V27.0937H24.4375V24.1453Z" fill="black"/>
<path d="M11.7884 1.84344C11.7524 1.84332 11.7167 1.85069 11.6836 1.86508C11.6506 1.87947 11.6209 1.90057 11.5964 1.92704C11.5719 1.95351 11.5532 1.98477 11.5415 2.01885C11.5297 2.05293 11.5252 2.08907 11.5281 2.125V3.33094H9.72186V2.125C9.72186 2.05455 9.69388 1.98699 9.64406 1.93718C9.59425 1.88736 9.52669 1.85938 9.45624 1.85938C9.38579 1.85938 9.31823 1.88736 9.26841 1.93718C9.2186 1.98699 9.19061 2.05455 9.19061 2.125V5.08407C9.19061 5.15451 9.2186 5.22208 9.26841 5.27189C9.31823 5.32171 9.38579 5.34969 9.45624 5.34969C9.52669 5.34969 9.59425 5.32171 9.64406 5.27189C9.69388 5.22208 9.72186 5.15451 9.72186 5.08407V3.85688H11.5281V5.08407C11.5281 5.15451 11.5561 5.22208 11.6059 5.27189C11.6557 5.32171 11.7233 5.34969 11.7937 5.34969C11.8642 5.34969 11.9317 5.32171 11.9816 5.27189C12.0314 5.22208 12.0594 5.15451 12.0594 5.08407V2.125C12.0624 2.08816 12.0576 2.05109 12.0452 2.01626C12.0328 1.98143 12.0131 1.94964 11.9875 1.923C11.9619 1.89636 11.9309 1.87549 11.8965 1.86177C11.8622 1.84805 11.8254 1.8418 11.7884 1.84344Z" fill="black"/>
<path d="M14.62 1.84344C14.273 1.84345 13.9339 1.9464 13.6455 2.13927C13.3571 2.33214 13.1324 2.60626 12.9998 2.92691C12.8673 3.24756 12.8329 3.60033 12.901 3.94055C12.969 4.28076 13.1365 4.59313 13.3822 4.8381C13.628 5.08306 13.9408 5.24961 14.2813 5.31665C14.6217 5.3837 14.9743 5.34822 15.2946 5.21472C15.6148 5.08121 15.8883 4.85568 16.0803 4.56668C16.2723 4.27769 16.3742 3.93822 16.3731 3.59126C16.3717 3.12722 16.1864 2.68267 15.8578 2.35504C15.5291 2.02742 15.084 1.84344 14.62 1.84344ZM14.62 4.82376C14.376 4.82481 14.1372 4.75342 13.9338 4.61863C13.7304 4.48384 13.5716 4.29172 13.4775 4.06661C13.3834 3.84149 13.3583 3.59351 13.4052 3.35408C13.4522 3.11465 13.5691 2.89454 13.7413 2.72164C13.9135 2.54874 14.1331 2.43083 14.3723 2.38284C14.6115 2.33485 14.8596 2.35895 15.0851 2.45208C15.3106 2.5452 15.5034 2.70317 15.6391 2.90597C15.7748 3.10877 15.8472 3.34727 15.8472 3.59126C15.8472 3.91722 15.7181 4.22991 15.4881 4.46089C15.2581 4.69188 14.946 4.82235 14.62 4.82376Z" fill="black"/>
<path d="M19.125 1.97625H16.8353C16.7649 1.97625 16.6973 2.00423 16.6475 2.05405C16.5977 2.10386 16.5697 2.17142 16.5697 2.24187C16.5697 2.31232 16.5977 2.37988 16.6475 2.4297C16.6973 2.47951 16.7649 2.5075 16.8353 2.5075H17.7225V5.08406C17.7225 5.15451 17.7505 5.22207 17.8003 5.27188C17.8501 5.3217 17.9177 5.34968 17.9881 5.34968C18.0586 5.34968 18.1262 5.3217 18.176 5.27188C18.2258 5.22207 18.2538 5.15451 18.2538 5.08406V2.49687H19.125C19.1955 2.49687 19.263 2.46889 19.3128 2.41907C19.3627 2.36926 19.3906 2.30169 19.3906 2.23125C19.3906 2.1608 19.3627 2.09324 19.3128 2.04342C19.263 1.99361 19.1955 1.96562 19.125 1.96562V1.97625Z" fill="black"/>
<path d="M21.9778 2.36407C22.0483 2.36407 22.1158 2.33608 22.1656 2.28627C22.2154 2.23645 22.2434 2.16889 22.2434 2.09844C22.2434 2.02799 22.2154 1.96043 22.1656 1.91062C22.1158 1.8608 22.0483 1.83282 21.9778 1.83282H20.3416C20.3045 1.83254 20.2678 1.84017 20.234 1.8552C20.2001 1.87022 20.1699 1.8923 20.1452 1.91996C20.1206 1.94762 20.1021 1.98022 20.0911 2.01557C20.0801 2.05093 20.0767 2.08824 20.0812 2.125V5.08407C20.0812 5.15311 20.1087 5.21932 20.1575 5.26814C20.2063 5.31695 20.2725 5.34438 20.3416 5.34438H21.9778C22.0483 5.34438 22.1158 5.31639 22.1656 5.26658C22.2154 5.21677 22.2434 5.1492 22.2434 5.07875C22.2434 5.00831 22.2154 4.94074 22.1656 4.89093C22.1158 4.84111 22.0483 4.81313 21.9778 4.81313H20.6019V3.92063H21.8609C21.9314 3.92063 21.9989 3.89264 22.0488 3.84283C22.0986 3.79302 22.1266 3.72545 22.1266 3.655C22.1266 3.58456 22.0986 3.51699 22.0488 3.46718C21.9989 3.41736 21.9314 3.38938 21.8609 3.38938H20.6019V2.36407H21.9778Z" fill="black"/>
<path d="M25.0325 4.82375H23.715V2.125C23.715 2.05455 23.687 1.98699 23.6372 1.93717C23.5874 1.88736 23.5198 1.85938 23.4494 1.85938C23.379 1.85938 23.3114 1.88736 23.2616 1.93717C23.2118 1.98699 23.1838 2.05455 23.1838 2.125V5.08406C23.1838 5.1187 23.1907 5.15299 23.2041 5.18492C23.2175 5.21686 23.2372 5.24579 23.2619 5.27004C23.2866 5.29428 23.316 5.31334 23.3482 5.32611C23.3804 5.33887 23.4148 5.34508 23.4494 5.34438H25.0432C25.1136 5.34438 25.1812 5.31639 25.231 5.26658C25.2808 5.21676 25.3088 5.1492 25.3088 5.07875C25.3088 5.0083 25.2808 4.94074 25.231 4.89092C25.1812 4.84111 25.1136 4.81313 25.0432 4.81313L25.0325 4.82375Z" fill="black"/>
</g>
<defs>
<clipPath id="clip0_12_1153">
<rect width="34" height="34" fill="white"/>
</clipPath>
</defs>
</svg>
