<svg width="32" height="32" viewBox="0 0 32 32" fill="none" xmlns="http://www.w3.org/2000/svg">
<g clip-path="url(#clip0_12_1217)">
<path d="M28.5 24.545C29.0042 24.5428 29.4925 24.3687 29.8843 24.0514C30.2762 23.7341 30.548 23.2927 30.655 22.8L31.965 16.5C32.0179 16.2764 32.0188 16.0436 31.9675 15.8197C31.9162 15.5957 31.8142 15.3865 31.6692 15.2082C31.5243 15.0299 31.3403 14.8873 31.1315 14.7914C30.9227 14.6955 30.6947 14.6488 30.465 14.655H13.5C13.2703 14.6488 13.0423 14.6955 12.8335 14.7914C12.6247 14.8873 12.4407 15.0299 12.2958 15.2082C12.1508 15.3865 12.0488 15.5957 11.9975 15.8197C11.9462 16.0436 11.9471 16.2764 12 16.5L13.32 22.78C13.4239 23.2806 13.6977 23.7298 14.095 24.0515C14.4924 24.3732 14.9888 24.5476 15.5 24.545H17.975V26.225H12.175V25.795C12.1737 25.3326 11.9894 24.8895 11.6624 24.5625C11.3355 24.2356 10.8924 24.0513 10.43 24.05H9.5V15.71C10.5775 15.5817 11.5707 15.0632 12.2921 14.2526C13.0134 13.4419 13.4128 12.3951 13.415 11.31V3.39999C13.4157 3.3674 13.4098 3.335 13.3978 3.3047C13.3858 3.2744 13.3679 3.24679 13.345 3.22351C13.3222 3.20023 13.295 3.18173 13.2649 3.16911C13.2349 3.15649 13.2026 3.14999 13.17 3.14999H2.61C2.5774 3.14999 2.54513 3.15649 2.51507 3.16911C2.48502 3.18173 2.45778 3.20023 2.43497 3.22351C2.41215 3.24679 2.39421 3.2744 2.38219 3.3047C2.37018 3.335 2.36433 3.3674 2.365 3.39999V11.31C2.36702 12.3944 2.76578 13.4405 3.48608 14.251C4.20637 15.0616 5.19839 15.5806 6.275 15.71V24.05H5.34C4.8776 24.0513 4.43452 24.2356 4.10756 24.5625C3.78059 24.8895 3.59632 25.3326 3.595 25.795V26.225H0.245C0.180022 26.225 0.117705 26.2508 0.0717588 26.2968C0.0258124 26.3427 0 26.405 0 26.47L0 26.91C0 27.4245 0.204392 27.918 0.568213 28.2818C0.932033 28.6456 1.42548 28.85 1.94 28.85H29.885C30.3421 28.8487 30.7801 28.6665 31.1033 28.3433C31.4265 28.0201 31.6087 27.5821 31.61 27.125V26.47C31.61 26.405 31.5842 26.3427 31.5382 26.2968C31.4923 26.2508 31.43 26.225 31.365 26.225H26V24.545H28.5ZM12.715 15.545C12.8081 15.4256 12.9272 15.3288 13.0632 15.2622C13.1992 15.1955 13.3485 15.1605 13.5 15.16H30.47C30.6228 15.1627 30.7732 15.1991 30.9103 15.2665C31.0475 15.334 31.1681 15.4308 31.2636 15.5501C31.359 15.6695 31.427 15.8084 31.4627 15.957C31.4984 16.1057 31.5009 16.2603 31.47 16.41L31.325 17.1H12.64L12.5 16.41C12.4652 16.2598 12.4655 16.1035 12.5011 15.9535C12.5367 15.8034 12.6064 15.6636 12.705 15.545H12.715ZM13.83 22.695L12.745 17.59H31.245L30.16 22.695C30.0783 23.0758 29.8694 23.4174 29.5677 23.6637C29.266 23.9099 28.8894 24.0462 28.5 24.05H15.5C15.1069 24.0517 14.7252 23.9178 14.4192 23.671C14.1132 23.4242 13.9016 23.0795 13.82 22.695H13.83ZM12.915 3.64499V5.96499H2.86V3.64499H12.915ZM2.86 11.31V6.45499H12.915V11.31C12.9137 12.3502 12.5016 13.3479 11.7684 14.0858C11.0352 14.8236 10.0402 15.2421 9 15.25H6.795C5.75091 15.2487 4.75004 14.833 4.01223 14.0942C3.27442 13.3555 2.86 12.3541 2.86 11.31ZM6.77 15.74H9V24.05H6.77V15.74ZM4.09 25.795C4.09 25.4635 4.2217 25.1455 4.45612 24.9111C4.69054 24.6767 5.00848 24.545 5.34 24.545H10.43C10.7615 24.545 11.0795 24.6767 11.3139 24.9111C11.5483 25.1455 11.68 25.4635 11.68 25.795V26.225H4.09V25.795ZM31.12 27.125C31.1187 27.4517 30.988 27.7645 30.7565 27.995C30.525 28.2256 30.2117 28.355 29.885 28.355H1.94C1.55804 28.3524 1.19254 28.1991 0.922911 27.9286C0.653284 27.658 0.501308 27.292 0.5 26.91V26.715H31.12V27.125ZM25.525 26.225H18.455V24.545H25.525V26.225Z" fill="black"/>
</g>
<defs>
<clipPath id="clip0_12_1217">
<rect width="32" height="32" fill="white"/>
</clipPath>
</defs>
</svg>
