<svg width="30" height="31" viewBox="0 0 30 31" fill="none" xmlns="http://www.w3.org/2000/svg">
<g clip-path="url(#clip0_2_1110)">
<path d="M27.2148 0.805054H2.62753C1.33012 0.805054 0.274902 1.86028 0.274902 3.15768V27.7507C0.274902 29.0423 1.33012 30.0975 2.62753 30.0975H27.2205C28.5179 30.0975 29.5731 29.0423 29.5731 27.7449V3.15768C29.5674 1.86028 28.5122 0.805054 27.2148 0.805054ZM14.1081 28.4715H2.62753C2.22966 28.4715 1.90675 28.1486 1.90675 27.7507V3.15768C1.90675 2.75981 2.22966 2.4369 2.62753 2.4369H14.1081V28.4715ZM27.2205 28.4657H15.7342V2.43113H27.2148C27.6126 2.43113 27.9355 2.75404 27.9355 3.15191V27.7449H27.9413C27.9413 28.1428 27.6184 28.4657 27.2205 28.4657Z" fill="black"/>
<path d="M11.1558 16.0788C10.8387 15.7617 10.3255 15.7617 10.0026 16.0788L8.82048 17.2609V11.6734C8.82048 11.2236 8.4572 10.8604 8.00744 10.8604C7.55767 10.8604 7.1944 11.2236 7.1944 11.6734V17.2609L6.01232 16.0846C5.69518 15.7674 5.18198 15.7674 4.85907 16.0846C4.54193 16.4017 4.54193 16.9149 4.85907 17.2378L7.43081 19.8038C7.59227 19.9652 7.79985 20.0402 8.00744 20.0402C8.21502 20.0402 8.42261 19.9595 8.58406 19.8038L11.1558 17.232C11.4729 16.9149 11.4729 16.4017 11.1558 16.0788Z" fill="black"/>
<path d="M24.9833 13.6685L22.4115 11.0968C22.2501 10.9353 22.0425 10.8604 21.8349 10.8604C21.6273 10.8604 21.4197 10.9411 21.2583 11.0968L18.6865 13.6685C18.3694 13.9857 18.3694 14.4988 18.6865 14.8218C19.0037 15.1389 19.5169 15.1389 19.8398 14.8218L21.0219 13.6397V19.2272C21.0219 19.6769 21.3851 20.0402 21.8349 20.0402C22.2847 20.0402 22.6479 19.6769 22.6479 19.2272V13.6397L23.83 14.8218C24.1472 15.1389 24.6603 15.1389 24.9833 14.8218C25.3004 14.5046 25.3004 13.9914 24.9833 13.6685Z" fill="black"/>
</g>
<rect x="0.524902" y="1.05115" width="28.7982" height="28.7982" stroke="#F8F8F8" stroke-width="0.5"/>
<defs>
<clipPath id="clip0_2_1110">
<rect x="0.274902" y="0.801147" width="29.2982" height="29.2982" fill="white"/>
</clipPath>
</defs>
</svg>
