<svg width="40" height="40" viewBox="0 0 40 40" fill="none" xmlns="http://www.w3.org/2000/svg">
<path d="M11.3333 30.6667H13.3333V34C13.3333 35.1 14.2333 36 15.3333 36C16.4333 36 17.3333 35.1 17.3333 34V30.6667H22.6667V34C22.6667 35.1 23.5667 36 24.6667 36C25.7667 36 26.6667 35.1 26.6667 34V30.6667H28.6667C29.4 30.6667 30 30.0667 30 29.3333V5.33333C30 4.6 29.4 4 28.6667 4H11.3333C10.6 4 10 4.6 10 5.33333V29.3333C10 30.0667 10.6 30.6667 11.3333 30.6667ZM16 34C16 34.3667 15.7 34.6667 15.3333 34.6667C14.9667 34.6667 14.6667 34.3667 14.6667 34V30.6667H16V34ZM25.3333 34C25.3333 34.3667 25.0333 34.6667 24.6667 34.6667C24.3 34.6667 24 34.3667 24 34V30.6667H25.3333V34ZM26 29.3333H23.3333H16.6667H14H11.3333V23.3333H28.6667V29.3333H26ZM28.6667 5.33333V22H11.3333V5.33333H28.6667Z" fill="black"/>
<path d="M18.6667 14H20.1867L18.48 17.0066C18.3 17.3266 18.4134 17.7333 18.7334 17.9133C18.84 17.9733 18.9534 18 19.06 18C19.2934 18 19.52 17.88 19.64 17.66L21.9134 13.66C22.0334 13.4533 22.0267 13.2 21.9134 12.9933C21.8 12.7866 21.5734 12.6666 21.3334 12.6666H19.9134L21.8867 9.69995C22.0934 9.39329 22.0067 8.97995 21.7 8.77329C21.3934 8.56662 20.98 8.65329 20.7734 8.95995L18.1067 12.96C17.9734 13.1666 17.96 13.4266 18.0734 13.6466C18.1934 13.8666 18.42 14 18.6667 14Z" fill="black"/>
<path d="M14.6666 24C13.5666 24 12.6666 24.9 12.6666 26C12.6666 27.1 13.5666 28 14.6666 28C15.7666 28 16.6666 27.1 16.6666 26C16.6666 24.9 15.7666 24 14.6666 24ZM14.6666 26.6667C14.3 26.6667 14 26.3667 14 26C14 25.6333 14.3 25.3333 14.6666 25.3333C15.0333 25.3333 15.3333 25.6333 15.3333 26C15.3333 26.3667 15.0333 26.6667 14.6666 26.6667Z" fill="black"/>
<path d="M25.3334 24C24.2334 24 23.3334 24.9 23.3334 26C23.3334 27.1 24.2334 28 25.3334 28C26.4334 28 27.3334 27.1 27.3334 26C27.3334 24.9 26.4334 24 25.3334 24ZM25.3334 26.6667C24.9667 26.6667 24.6667 26.3667 24.6667 26C24.6667 25.6333 24.9667 25.3333 25.3334 25.3333C25.7 25.3333 26 25.6333 26 26C26 26.3667 25.7 26.6667 25.3334 26.6667Z" fill="black"/>
<path d="M21.3333 25.3334H18.6667C18.3 25.3334 18 25.6334 18 26C18 26.3667 18.3 26.6667 18.6667 26.6667H21.3333C21.7 26.6667 22 26.3667 22 26C22 25.6334 21.7 25.3334 21.3333 25.3334Z" fill="black"/>
<rect x="0.5" y="0.5" width="39" height="39" stroke="#EFEFEF"/>
</svg>
