<svg width="37" height="36" viewBox="0 0 37 36" fill="none" xmlns="http://www.w3.org/2000/svg">
<path d="M22.2574 35.4159C25.1015 35.4159 27.5216 33.2091 27.7669 30.3919C28.1065 26.4867 28.112 22.5999 27.7832 18.8418C27.5461 16.0241 25.1296 13.8165 22.2815 13.8165H14.142C11.2902 13.8165 8.87013 16.0239 8.63256 18.8413C8.31331 22.5627 8.3159 26.427 8.64058 30.3281C8.89081 33.2285 11.2628 35.4159 14.1578 35.4159L22.2574 35.4159ZM9.43185 30.2609C9.11105 26.4056 9.10847 22.5862 9.42384 18.9085C9.62702 16.4985 11.6994 14.6107 14.142 14.6107H22.2815C24.7202 14.6107 26.7892 16.4985 26.9919 18.9095C27.3168 22.6234 27.3114 26.4635 26.9759 30.3229C26.766 32.7337 24.6933 34.6218 22.2574 34.6218H14.1578C11.6782 34.6218 9.64641 32.7466 9.43185 30.2609Z" fill="black"/>
<mask id="path-2-inside-1_2_1375" fill="white">
<path d="M21.7273 32.2128C23.2798 32.2128 24.6003 31.0126 24.7334 29.4802C25.0195 26.1884 25.0242 22.9137 24.7471 19.7481C24.6183 18.2183 23.3013 17.0199 21.7482 17.0199H14.6751C13.1186 17.0199 11.7982 18.2196 11.669 19.7507C11.4001 22.8843 11.4024 26.1391 11.6759 29.4259C11.8132 31.0147 13.1085 32.2128 14.6888 32.2128H21.7273ZM12.4672 29.3587C12.1976 26.1176 12.1953 22.9075 12.4602 19.8179C12.5551 18.6942 13.5278 17.814 14.6751 17.814H21.7482C22.8918 17.814 23.8615 18.6929 23.9558 19.8161C24.229 22.937 24.2244 26.1654 23.9424 29.4114C23.8444 30.537 22.8714 31.4187 21.7273 31.4187H14.6888C13.5237 31.4187 12.5685 30.5326 12.4672 29.3587Z"/>
</mask>
<path d="M21.7273 32.2128C23.2798 32.2128 24.6003 31.0126 24.7334 29.4802C25.0195 26.1884 25.0242 22.9137 24.7471 19.7481C24.6183 18.2183 23.3013 17.0199 21.7482 17.0199H14.6751C13.1186 17.0199 11.7982 18.2196 11.669 19.7507C11.4001 22.8843 11.4024 26.1391 11.6759 29.4259C11.8132 31.0147 13.1085 32.2128 14.6888 32.2128H21.7273ZM12.4672 29.3587C12.1976 26.1176 12.1953 22.9075 12.4602 19.8179C12.5551 18.6942 13.5278 17.814 14.6751 17.814H21.7482C22.8918 17.814 23.8615 18.6929 23.9558 19.8161C24.229 22.937 24.2244 26.1654 23.9424 29.4114C23.8444 30.537 22.8714 31.4187 21.7273 31.4187H14.6888C13.5237 31.4187 12.5685 30.5326 12.4672 29.3587Z" fill="black"/>
<path d="M24.7334 29.4802L23.7371 29.3936L23.7371 29.3937L24.7334 29.4802ZM24.7471 19.7481L23.7506 19.832L23.7509 19.8353L24.7471 19.7481ZM11.669 19.7507L12.6653 19.8362L12.6654 19.8348L11.669 19.7507ZM11.6759 29.4259L10.6794 29.5088L10.6796 29.512L11.6759 29.4259ZM12.4672 29.3587L11.4706 29.4416L11.4709 29.4447L12.4672 29.3587ZM12.4602 19.8179L13.4566 19.9034L13.4567 19.902L12.4602 19.8179ZM23.9558 19.8161L22.9593 19.8998L22.9596 19.9033L23.9558 19.8161ZM23.9424 29.4114L24.9386 29.4982L24.9386 29.498L23.9424 29.4114ZM14.6888 31.4187V30.4187H14.6888L14.6888 31.4187ZM21.7273 33.2128C23.7908 33.2128 25.5509 31.6237 25.7296 29.5667L23.7371 29.3937C23.6496 30.4015 22.7689 31.2128 21.7273 31.2128V33.2128ZM25.7296 29.5668C26.0206 26.2195 26.0256 22.8866 25.7433 19.6609L23.7509 19.8353C24.0227 22.9409 24.0185 26.1574 23.7371 29.3936L25.7296 29.5668ZM25.7436 19.6643C25.5705 17.6071 23.8116 16.0199 21.7482 16.0199V18.0199C22.791 18.0199 23.6662 18.8295 23.7506 19.832L25.7436 19.6643ZM21.7482 16.0199H14.6751V18.0199H21.7482V16.0199ZM14.6751 16.0199C12.6095 16.0199 10.8463 17.6072 10.6725 19.6666L12.6654 19.8348C12.7501 18.832 13.6277 18.0199 14.6751 18.0199V16.0199ZM10.6726 19.6652C10.3987 22.8575 10.4014 26.1686 10.6794 29.5088L12.6725 29.343C12.4034 26.1095 12.4015 22.9111 12.6653 19.8362L10.6726 19.6652ZM10.6796 29.512C10.8609 31.6102 12.5821 33.2128 14.6888 33.2128V31.2128C13.635 31.2128 12.7655 30.4191 12.6722 29.3398L10.6796 29.512ZM14.6888 33.2128H21.7273V31.2128H14.6888V33.2128ZM13.4638 29.2758C13.1986 26.088 13.1966 22.9343 13.4566 19.9034L11.4639 19.7325C11.1939 22.8807 11.1966 26.1472 11.4707 29.4416L13.4638 29.2758ZM13.4567 19.902C13.5067 19.3102 14.0333 18.814 14.6751 18.814V16.814C13.0224 16.814 11.6036 18.0782 11.4638 19.7338L13.4567 19.902ZM14.6751 18.814H21.7482V16.814H14.6751V18.814ZM21.7482 18.814C22.3846 18.814 22.9095 19.3071 22.9593 19.8998L24.9523 19.7324C24.8134 18.0787 23.399 16.814 21.7482 16.814V18.814ZM22.9596 19.9033C23.2276 22.9641 23.2233 26.1343 22.9461 29.3249L24.9386 29.498C25.2255 26.1965 25.2305 22.9099 24.952 19.7289L22.9596 19.9033ZM22.9461 29.3247C22.894 29.9232 22.3632 30.4187 21.7273 30.4187V32.4187C23.3796 32.4187 24.7947 31.1507 24.9386 29.4982L22.9461 29.3247ZM21.7273 30.4187H14.6888V32.4187H21.7273V30.4187ZM14.6888 30.4187C14.0524 30.4187 13.521 29.9393 13.4635 29.2727L11.4709 29.4447C11.616 31.1258 12.995 32.4187 14.6888 32.4187L14.6888 30.4187Z" fill="black" mask="url(#path-2-inside-1_2_1375)"/>
<path d="M21.2886 4.65348L23.1454 6.5103C23.7118 7.07675 24.6332 7.08121 25.2041 6.5103C25.7732 5.94116 25.7733 5.02024 25.2041 4.45107L22.921 2.16798C22.6459 1.8932 22.2804 1.74171 21.8916 1.74171H14.802L14.4721 1.23996C14.0311 0.568888 13.1264 0.382249 12.4563 0.822735C11.7852 1.26374 11.5981 2.16798 12.0388 2.83905L12.7999 3.99714C13.07 4.40815 13.5247 4.65347 14.0166 4.65347H16.6505V8.01891H16.5365C15.6374 8.01891 14.9059 8.75047 14.9059 9.64954V10.4594C13.8352 10.5897 13.0002 11.496 13.0002 12.6037V13.2714C13.0002 13.4909 13.1781 13.6685 13.3973 13.6685C13.6165 13.6685 13.7943 13.4909 13.7943 13.2714V12.6037C13.7943 11.8447 14.4093 11.2272 15.1654 11.2272H21.2273C21.9834 11.2272 22.5984 11.8447 22.5984 12.6037V13.2714C22.5984 13.4909 22.7762 13.6685 22.9954 13.6685C23.2146 13.6685 23.3925 13.4909 23.3925 13.2714V12.6037C23.3925 11.4939 22.5546 10.5866 21.4814 10.4589V9.64954C21.4814 8.75047 20.7522 8.01891 19.8559 8.01891H19.7409V4.65348H21.2886ZM13.4637 3.56105L12.7027 2.40296C12.5023 2.09819 12.5874 1.68691 12.8924 1.48657C13.1958 1.28712 13.6073 1.36982 13.8085 1.67605L14.256 2.35668C14.3294 2.46862 14.4543 2.53583 14.5879 2.53583H21.8916C22.0659 2.53583 22.2362 2.6064 22.3595 2.72944L24.6426 5.01253C24.9006 5.27077 24.9006 5.69058 24.6426 5.94882C24.3929 6.19854 23.9566 6.19854 23.7068 5.94882L21.7337 3.97568C21.6592 3.90123 21.5582 3.85935 21.453 3.85935C18.8729 3.85935 16.5883 3.85935 14.0166 3.85935C13.793 3.85936 13.5862 3.74795 13.4637 3.56105ZM20.6873 9.64954V10.4331H15.7V9.64954C15.7 9.18838 16.0753 8.81303 16.5365 8.81303H19.8559C20.3143 8.81303 20.6873 9.18837 20.6873 9.64954ZM18.9468 8.01891H17.4446V4.65348H18.9468V8.01891Z" fill="black"/>
<path d="M18.2103 29.0305C19.9984 29.0305 21.4529 27.5757 21.4529 25.7879C21.4529 24.5786 20.0878 22.2955 18.9429 20.5933C18.7785 20.3485 18.5047 20.2024 18.2106 20.2021C17.9166 20.2021 17.6424 20.3485 17.4777 20.593C16.3328 22.2955 14.9677 24.5786 14.9677 25.7879C14.9677 27.5757 16.4222 29.0305 18.2103 29.0305ZM18.1366 21.0363C18.1589 21.0035 18.1891 20.9963 18.2103 20.9963C18.2318 20.9963 18.2617 21.0035 18.284 21.0363C19.7709 23.2473 20.6588 25.0232 20.6588 25.7879C20.6588 27.1378 19.5605 28.2364 18.2103 28.2364C16.8601 28.2364 15.7618 27.1378 15.7618 25.7879C15.7618 25.0232 16.6497 23.2473 18.1366 21.0363Z" fill="black"/>
</svg>
