<svg width="20" height="20" viewBox="0 0 20 20" fill="none" xmlns="http://www.w3.org/2000/svg">
<path d="M1.66663 4.16671C1.66663 3.70587 2.03996 3.33337 2.49996 3.33337H13.3333C13.7933 3.33337 14.1666 3.70587 14.1666 4.16671C14.1666 4.62754 13.7933 5.00004 13.3333 5.00004H2.49996C2.03996 5.00004 1.66663 4.62754 1.66663 4.16671ZM17.5 9.16671H2.49996C2.03996 9.16671 1.66663 9.53921 1.66663 10C1.66663 10.4609 2.03996 10.8334 2.49996 10.8334H17.5C17.96 10.8334 18.3333 10.4609 18.3333 10C18.3333 9.53921 17.96 9.16671 17.5 9.16671ZM9.99996 15H2.49996C2.03996 15 1.66663 15.3725 1.66663 15.8334C1.66663 16.2942 2.03996 16.6667 2.49996 16.6667H9.99996C10.46 16.6667 10.8333 16.2942 10.8333 15.8334C10.8333 15.3725 10.46 15 9.99996 15Z" fill="#7C7C7C"/>
</svg>
