<svg width="26" height="26" viewBox="0 0 26 26" fill="none" xmlns="http://www.w3.org/2000/svg">
<g clip-path="url(#clip0_2_2118)">
<path d="M19.8593 25.9994C19.5766 25.9995 19.2942 25.9796 19.0143 25.9396C14.2228 25.2762 9.78123 23.0595 6.37051 19.6294C2.94354 16.2196 0.727239 11.7816 0.0603131 6.99345C-0.087312 5.89751 0.0566911 4.78201 0.477796 3.75949C0.898902 2.73697 1.58222 1.84358 2.45881 1.16945L3.10881 0.662447C3.45824 0.391046 3.8606 0.195781 4.29001 0.0892072C4.71943 -0.0173664 5.1664 -0.0328888 5.60217 0.0436382C6.03795 0.120165 6.45288 0.287048 6.8203 0.533553C7.18771 0.780059 7.49946 1.10073 7.73551 1.47495L10.4499 5.78055C10.8778 6.45307 11.0941 7.23845 11.0709 8.0352C11.0477 8.83195 10.7861 9.60344 10.3199 10.2499L9.40991 11.5135C9.99289 12.5791 10.7248 13.5561 11.5835 14.4151C12.449 15.2697 13.428 16.0011 14.4929 16.5887L15.7552 15.6787C16.4013 15.2138 17.1718 14.9529 17.9674 14.9298C18.763 14.9066 19.5474 15.1222 20.2194 15.5487L24.5211 18.2618C24.8957 18.4977 25.2168 18.8095 25.4635 19.177C25.7102 19.5446 25.8772 19.9598 25.9536 20.3958C26.0301 20.8319 26.0143 21.2791 25.9073 21.7087C25.8002 22.1383 25.6044 22.5406 25.3323 22.8898L24.8266 23.5398C24.2397 24.3 23.4873 24.9165 22.6267 25.3427C21.766 25.7688 20.8197 25.9934 19.8593 25.9994ZM5.05101 1.81945C4.75279 1.81955 4.46315 1.91929 4.22811 2.10285L3.57811 2.60985C2.95494 3.08665 2.46827 3.71912 2.16705 4.44366C1.86582 5.1682 1.76065 5.95927 1.86211 6.73735C2.4769 11.1335 4.51315 15.2079 7.66011 18.3385C10.7909 21.4891 14.8684 23.5263 19.2678 24.1378C20.0447 24.2389 20.8345 24.134 21.5581 23.8335C22.2816 23.533 22.9134 23.0475 23.3901 22.4257L23.8958 21.7757C24.0113 21.6268 24.0944 21.4554 24.1398 21.2725C24.1852 21.0896 24.1919 20.8992 24.1595 20.7135C24.1271 20.5279 24.0562 20.3511 23.9515 20.1944C23.8468 20.0377 23.7105 19.9046 23.5513 19.8036L19.2496 17.0918C18.883 16.8594 18.4551 16.742 18.0212 16.7547C17.5873 16.7675 17.1671 16.9098 16.8147 17.1633L15.1013 18.3918C14.971 18.4858 14.8182 18.5435 14.6584 18.5593C14.4986 18.5751 14.3374 18.5482 14.1913 18.4815C12.747 17.7763 11.4293 16.8372 10.2913 15.7021C8.36341 13.769 7.54051 11.8619 7.50931 11.7826C7.44828 11.6388 7.42531 11.4817 7.44262 11.3264C7.45992 11.1711 7.51691 11.0229 7.60811 10.896L8.84051 9.18785C9.09519 8.83555 9.23839 8.41498 9.25159 7.98047C9.2648 7.54596 9.14742 7.11746 8.91461 6.75035L6.19761 2.44865C6.09779 2.28847 5.96501 2.15138 5.80811 2.04648C5.65121 1.94158 5.47378 1.87128 5.28761 1.84025C5.2095 1.82644 5.13033 1.81948 5.05101 1.81945Z" fill="black"/>
</g>
<defs>
<clipPath id="clip0_2_2118">
<rect width="26" height="26" fill="white"/>
</clipPath>
</defs>
</svg>
