<svg width="30" height="30" viewBox="0 0 30 30" fill="none" xmlns="http://www.w3.org/2000/svg">
<path d="M15.8745 9.27136C14.939 9.27136 14.0315 9.45658 13.1772 9.82179C12.954 9.91718 12.8505 10.1755 12.9459 10.3986C13.0413 10.6218 13.2995 10.7253 13.5227 10.63C14.2672 10.3117 15.0584 10.1503 15.8745 10.1503C19.176 10.1503 21.8619 12.8362 21.8619 16.1377C21.8619 19.4392 19.176 22.125 15.8745 22.125C12.573 22.125 9.88709 19.4391 9.88709 16.1377C9.88709 14.3367 10.687 12.6481 12.0817 11.5048C12.2695 11.351 12.2969 11.0741 12.143 10.8864C11.9892 10.6987 11.7123 10.6712 11.5246 10.8251C9.92535 12.136 9.00818 14.0723 9.00818 16.1377C9.00818 19.9238 12.0884 23.0039 15.8745 23.0039C19.6606 23.0039 22.7408 19.9237 22.7408 16.1377C22.7408 12.3516 19.6606 9.27136 15.8745 9.27136Z" fill="black"/>
<path d="M15.8745 6.90894C10.7858 6.90894 6.64587 11.0489 6.64587 16.1375C6.64587 21.2262 10.7858 25.3661 15.8745 25.3661C20.9631 25.3661 25.1031 21.2262 25.1031 16.1375C25.1031 11.0488 20.9631 6.90894 15.8745 6.90894ZM15.8745 24.4872C11.2705 24.4872 7.52478 20.7416 7.52478 16.1375C7.52478 11.5335 11.2705 7.78784 15.8745 7.78784C20.4785 7.78784 24.2241 11.5335 24.2241 16.1375C24.2241 20.7415 20.4785 24.4872 15.8745 24.4872Z" fill="black"/>
<path d="M6.38615 1.50329C5.8264 1.5395 5.38794 2.01721 5.38794 2.59091V5.91915C5.38794 6.07279 5.26296 6.19771 5.10939 6.19771C4.95575 6.19771 4.83077 6.07273 4.83077 5.91915V2.59096C4.83077 2.01727 4.39231 1.5395 3.83263 1.50329C3.21153 1.46292 2.69391 1.9571 2.69397 2.5694V5.91915C2.69397 6.07279 2.56899 6.19771 2.41542 6.19771C2.26178 6.19771 2.1368 6.07273 2.1368 5.91915V2.59096C2.1368 2.01727 1.69834 1.5395 1.13865 1.50329C0.518556 1.46303 0 1.95704 0 2.5694C0 2.5694 0 8.2891 0 8.29092C0 9.30242 0.484864 10.2488 1.17756 10.967C1.25438 11.0467 1.33383 11.1236 1.41539 11.1974C1.92393 11.6577 2.09526 11.8128 2.09526 12.4155V26.9686C2.09526 27.8879 2.84315 28.6358 3.76237 28.6358C4.68159 28.6358 5.42948 27.8879 5.42948 26.9686V12.4155C5.42948 11.8128 5.60081 11.6577 6.10941 11.1973C6.95896 10.4284 7.5248 9.46578 7.5248 8.29074V2.5694C7.5248 1.95704 7.00718 1.46303 6.38615 1.50329ZM4.55058 26.9686C4.55058 27.4032 4.19696 27.7569 3.76237 27.7569C3.32778 27.7569 2.97417 27.4032 2.97417 26.9686V18.9437H4.55058V26.9686ZM6.64589 8.2908C6.64589 9.21436 6.18294 9.94537 5.51966 10.5458C4.97825 11.0358 4.55058 11.4229 4.55058 12.4156V18.0648H2.97417V12.4156C2.97417 11.4229 2.54661 11.0359 2.00526 10.5459C1.33934 9.94309 0.878908 9.21863 0.878908 8.29098V2.5694C0.878908 2.46048 0.971135 2.37282 1.08188 2.38032C1.17891 2.38659 1.25789 2.4811 1.25789 2.59091V5.91915C1.25789 6.55742 1.77715 7.07662 2.41542 7.07662C3.05368 7.07662 3.57288 6.55736 3.57288 5.91915V2.5694C3.57288 2.46048 3.66487 2.373 3.77585 2.38032C3.87288 2.38659 3.95186 2.4811 3.95186 2.59091V5.91915C3.95186 6.55742 4.47112 7.07662 5.10939 7.07662C5.74765 7.07662 6.26685 6.55736 6.26685 5.91915V2.59096C6.26685 2.4811 6.34583 2.38671 6.44292 2.38038C6.55337 2.37288 6.64589 2.46048 6.64589 2.56946C6.64589 2.56946 6.64589 8.28951 6.64589 8.2908Z" fill="black"/>
<path d="M27.736 1.55981C26.571 2.23124 25.8473 3.48368 25.8473 4.82829V12.0348C25.8473 13.7215 26.123 15.3854 26.6657 16.9818V26.9687C26.6658 27.888 27.4137 28.6359 28.3329 28.6359C29.2521 28.6359 30 27.888 30 26.9688C30 26.9688 30 2.91133 30 2.86815C30 1.7309 28.7214 0.991858 27.736 1.55981ZM29.1212 26.9687C29.1212 27.4033 28.7675 27.757 28.333 27.757C27.8984 27.757 27.5448 27.4033 27.5448 26.9687V17.35H29.1212V26.9687ZM29.1212 16.4711H27.4219C26.9602 15.0358 26.7263 13.545 26.7263 12.0348V4.82829C26.7263 3.79692 27.2814 2.83628 28.175 2.32129C28.5888 2.08288 29.1212 2.39008 29.1212 2.86809V16.4711Z" fill="black"/>
</svg>
