<svg width="34" height="34" viewBox="0 0 34 34" fill="none" xmlns="http://www.w3.org/2000/svg">
<g clip-path="url(#clip0_12_1207)">
<path d="M8.52659 22.3444C8.24267 22.3444 7.96514 22.4286 7.72914 22.5865C7.49315 22.7443 7.30931 22.9686 7.2009 23.2311C7.09249 23.4935 7.0644 23.7821 7.12018 24.0605C7.17595 24.3389 7.31309 24.5945 7.51423 24.7949C7.71536 24.9953 7.97144 25.1314 8.25003 25.1862C8.52862 25.2409 8.81719 25.2118 9.07919 25.1024C9.3412 24.993 9.56485 24.8083 9.72182 24.5718C9.87879 24.3352 9.96202 24.0573 9.96097 23.7734C9.95956 23.3939 9.80782 23.0304 9.53897 22.7626C9.27013 22.4947 8.90609 22.3444 8.52659 22.3444ZM8.52659 24.6872C8.34564 24.6882 8.16846 24.6355 8.0175 24.5358C7.86654 24.436 7.74859 24.2937 7.67862 24.1268C7.60864 23.9599 7.58979 23.776 7.62444 23.5984C7.6591 23.4208 7.7457 23.2575 7.87328 23.1292C8.00085 23.0009 8.16366 22.9133 8.34105 22.8776C8.51844 22.8419 8.70244 22.8597 8.86972 22.9287C9.03699 22.9977 9.18002 23.1148 9.28066 23.2652C9.3813 23.4156 9.43502 23.5925 9.43503 23.7734C9.43573 23.8932 9.41275 24.0119 9.36741 24.1227C9.32207 24.2335 9.25526 24.3343 9.17084 24.4192C9.08641 24.5041 8.98603 24.5715 8.87547 24.6175C8.7649 24.6635 8.64634 24.6872 8.52659 24.6872Z" fill="black"/>
<path d="M27.8428 22.3444C27.5587 22.3433 27.2806 22.4267 27.0439 22.5839C26.8072 22.7411 26.6226 22.9651 26.5133 23.2274C26.4041 23.4897 26.3753 23.7785 26.4304 24.0573C26.4856 24.336 26.6223 24.5921 26.8233 24.793C27.0242 24.9939 27.2802 25.1306 27.559 25.1858C27.8377 25.241 28.1266 25.2121 28.3889 25.1029C28.6512 24.9937 28.8751 24.809 29.0324 24.5723C29.1896 24.3356 29.2729 24.0576 29.2719 23.7734C29.2705 23.3949 29.1195 23.0322 28.8518 22.7645C28.5841 22.4968 28.2214 22.3458 27.8428 22.3444ZM27.8428 24.6872C27.6619 24.6882 27.4847 24.6355 27.3337 24.5358C27.1828 24.436 27.0648 24.2937 26.9948 24.1268C26.9249 23.9599 26.906 23.776 26.9407 23.5984C26.9753 23.4208 27.0619 23.2575 27.1895 23.1292C27.3171 23.0009 27.4799 22.9133 27.6573 22.8776C27.8347 22.842 28.0187 22.8597 28.1859 22.9287C28.3532 22.9977 28.4962 23.1149 28.5969 23.2652C28.6975 23.4156 28.7512 23.5925 28.7513 23.7734C28.7513 24.0149 28.6557 24.2465 28.4855 24.4177C28.3153 24.5889 28.0842 24.6858 27.8428 24.6872Z" fill="black"/>
<path d="M32.47 17.5313C32.0401 17.5329 31.6141 17.4499 31.2162 17.2869L30.9613 17.1859C30.3999 16.966 29.9081 16.599 29.5375 16.1234L24.8678 10.1522C24.5918 9.80084 24.2392 9.5172 23.8368 9.32293C23.4345 9.12866 22.993 9.0289 22.5462 9.03126H20.825V7.75095C20.825 7.50297 20.7265 7.26515 20.5511 7.0898C20.3758 6.91445 20.138 6.81595 19.89 6.81595H6.26875C6.14419 6.81311 6.02032 6.83521 5.90441 6.88093C5.78851 6.92664 5.68291 6.99507 5.59382 7.08217C5.50474 7.16928 5.43396 7.27331 5.38565 7.38816C5.33734 7.50301 5.31247 7.62635 5.3125 7.75095V9.03126H4.42531C3.79269 9.03126 3.18597 9.28257 2.73864 9.7299C2.29131 10.1772 2.04 10.7839 2.04 11.4166V12.8297H0.626875C0.462442 12.8297 0.304583 12.8943 0.187322 13.0095C0.0700609 13.1248 0.002787 13.2815 0 13.4459L0 18.0625C0 18.2288 0.0660456 18.3882 0.183607 18.5058C0.301169 18.6233 0.460617 18.6894 0.626875 18.6894H2.04V22.7428C2.04 22.7428 2.04 22.78 2.04 22.8013C2.04 22.8225 2.04 22.8013 2.04 22.8331C2.03451 22.863 2.03451 22.8936 2.04 22.9234C2.08542 23.5243 2.35561 24.086 2.7967 24.4966C3.23779 24.9072 3.8174 25.1365 4.42 25.1388H5.39219C5.65699 25.7377 6.08888 26.2476 6.63611 26.6074C7.18334 26.9671 7.82269 27.1614 8.47755 27.167C9.13241 27.1726 9.77499 26.9893 10.3283 26.639C10.8816 26.2887 11.3222 25.7862 11.5972 25.1919C16.5006 25.1441 23.6831 25.1069 24.7244 25.1919C24.996 25.7902 25.4349 26.2971 25.9882 26.6515C26.5415 27.0059 27.1855 27.1927 27.8425 27.1893C28.4996 27.186 29.1416 26.9926 29.6912 26.6325C30.2408 26.2724 30.6745 25.761 30.94 25.16H32.1406C32.6338 25.16 33.1067 24.9641 33.4554 24.6154C33.8041 24.2667 34 23.7938 34 23.3006V19.0825C34.0028 18.8798 33.9653 18.6786 33.8897 18.4905C33.8141 18.3024 33.7018 18.1312 33.5595 17.9869C33.4171 17.8425 33.2475 17.7279 33.0605 17.6497C32.8734 17.5715 32.6727 17.5312 32.47 17.5313ZM33.4688 21.5634H33.1447C32.6846 21.5626 32.2402 21.3955 31.8936 21.0928C31.547 20.7902 31.3216 20.3724 31.2588 19.9166H33.4688V21.5634ZM5.84375 7.75095C5.84375 7.64105 5.88741 7.53565 5.96512 7.45794C6.04283 7.38023 6.14823 7.33657 6.25812 7.33657H19.89C19.999 7.33797 20.103 7.38224 20.1796 7.4598C20.2561 7.53736 20.2991 7.64196 20.2991 7.75095V9.03126H5.84375V7.75095ZM2.55 19.7041H3.40531C3.47249 19.7108 3.53443 19.7434 3.57804 19.7949C3.62165 19.8465 3.64353 19.913 3.63906 19.9803V22.3125C3.64353 22.3799 3.62165 22.4464 3.57804 22.4979C3.53443 22.5494 3.47249 22.582 3.40531 22.5888H2.56063L2.55 19.7041ZM0.626875 18.1794C0.612616 18.1788 0.598641 18.1752 0.58587 18.1689C0.573099 18.1625 0.561823 18.1535 0.552787 18.1424C0.543751 18.1314 0.537159 18.1186 0.533446 18.1048C0.529734 18.091 0.528985 18.0766 0.53125 18.0625V13.4459C0.53125 13.4178 0.542444 13.3907 0.56237 13.3708C0.582296 13.3509 0.609321 13.3397 0.6375 13.3397H2.04V18.1794H0.626875ZM8.52656 26.6794C7.95475 26.6804 7.39548 26.5118 6.91952 26.1949C6.44356 25.878 6.07232 25.427 5.85277 24.899C5.63321 24.371 5.57522 23.7898 5.68613 23.2288C5.79705 22.6679 6.07187 22.1524 6.47583 21.7477C6.87979 21.343 7.39473 21.0673 7.95548 20.9553C8.51623 20.8434 9.09759 20.9003 9.62597 21.1189C10.1544 21.3374 10.606 21.7079 10.9238 22.1832C11.2416 22.6586 11.4112 23.2176 11.4113 23.7894C11.407 24.5522 11.1014 25.2824 10.5611 25.8208C10.0207 26.3591 9.28936 26.6621 8.52656 26.6634V26.6794ZM27.8428 26.6794C27.271 26.6804 26.7117 26.5118 26.2358 26.1949C25.7598 25.878 25.3886 25.427 25.169 24.899C24.9495 24.371 24.8915 23.7898 25.0024 23.2288C25.1133 22.6679 25.3881 22.1524 25.7921 21.7477C26.196 21.343 26.711 21.0673 27.2717 20.9553C27.8325 20.8434 28.4138 20.9003 28.9422 21.1189C29.4706 21.3374 29.9223 21.7079 30.2401 22.1832C30.5579 22.6586 30.7275 23.2176 30.7275 23.7894C30.7255 24.1207 30.668 24.4493 30.5575 24.7616C30.5287 24.7981 30.5119 24.8426 30.5097 24.8891C30.2891 25.4144 29.9184 25.863 29.444 26.1787C28.9696 26.4943 28.4126 26.6629 27.8428 26.6634V26.6794ZM32.1406 24.6447H31.1366C31.2092 24.3654 31.2467 24.078 31.2481 23.7894C31.2134 22.9088 30.8391 22.0759 30.2038 21.4652C29.5685 20.8544 28.7214 20.5133 27.8402 20.5133C26.9589 20.5133 26.1119 20.8544 25.4765 21.4652C24.8412 22.0759 24.467 22.9088 24.4322 23.7894C24.4318 24.0928 24.4729 24.3949 24.5544 24.6872C23.5609 24.6341 20.6391 24.6181 11.8044 24.6872C11.9365 24.2175 11.9663 23.7249 11.8919 23.2427C11.8174 22.7605 11.6403 22.2999 11.3725 21.892C11.1048 21.4841 10.7527 21.1384 10.3399 20.8782C9.92715 20.6181 9.46337 20.4495 8.97988 20.3838C8.49639 20.3182 8.00446 20.3571 7.53728 20.4979C7.07011 20.6386 6.63857 20.878 6.27181 21.1998C5.90505 21.5216 5.61161 21.9183 5.41129 22.3632C5.21097 22.8081 5.10844 23.2908 5.11062 23.7788C5.11203 24.0674 5.14951 24.3547 5.22219 24.6341H4.43594C3.99984 24.6341 3.57744 24.4818 3.24178 24.2034C2.90613 23.925 2.67834 23.538 2.59781 23.1094H3.40531C3.50718 23.1066 3.60751 23.0838 3.70056 23.0423C3.79361 23.0007 3.87757 22.9413 3.94763 22.8673C4.01768 22.7933 4.07247 22.7062 4.10886 22.611C4.14524 22.5158 4.16252 22.4144 4.15969 22.3125V19.9803C4.16252 19.8785 4.14524 19.777 4.10886 19.6818C4.07247 19.5867 4.01768 19.4996 3.94763 19.4256C3.87757 19.3516 3.79361 19.2921 3.70056 19.2505C3.60751 19.209 3.50718 19.1862 3.40531 19.1834H2.56063V11.4059C2.56622 10.9151 2.76514 10.4462 3.11424 10.1011C3.46333 9.75601 3.93443 9.56248 4.42531 9.56251H22.5462C22.9101 9.56157 23.2694 9.64333 23.5971 9.80163C23.9247 9.95992 24.2121 10.1906 24.4375 10.4763L29.1231 16.4688C29.5508 17.0185 30.1175 17.444 30.7647 17.7013L31.0197 17.8022C31.481 17.986 31.9734 18.0798 32.47 18.0784C32.7377 18.0784 32.9944 18.1848 33.1837 18.3741C33.373 18.5634 33.4794 18.8201 33.4794 19.0878V19.3959H30.9878C30.9532 19.3959 30.9189 19.4028 30.887 19.4163C30.855 19.4297 30.8261 19.4493 30.8018 19.4741C30.7776 19.4988 30.7585 19.5281 30.7458 19.5603C30.733 19.5925 30.7268 19.6269 30.7275 19.6616C30.7289 20.305 30.9851 20.9217 31.4401 21.3767C31.8951 21.8317 32.5118 22.088 33.1553 22.0894H33.4688V23.3006C33.466 23.652 33.3252 23.9882 33.0767 24.2367C32.8282 24.4852 32.492 24.626 32.1406 24.6288V24.6447Z" fill="black"/>
<path d="M17 10.8588H4.53685C4.29825 10.8602 4.0699 10.9559 3.90168 11.1252C3.73345 11.2944 3.63903 11.5233 3.63904 11.7619V16.5697C3.63904 16.8078 3.73363 17.0362 3.902 17.2046C4.07037 17.3729 4.29874 17.4675 4.53685 17.4675H17C17.2381 17.4675 17.4665 17.3729 17.6348 17.2046C17.8032 17.0362 17.8978 16.8078 17.8978 16.5697V11.7885C17.9013 11.6681 17.8808 11.5482 17.8373 11.4359C17.7938 11.3236 17.7284 11.2211 17.6447 11.1345C17.561 11.0479 17.4609 10.9789 17.3502 10.9315C17.2395 10.8842 17.1204 10.8594 17 10.8588ZM12.8031 11.39V16.9469H8.73373V11.3847L12.8031 11.39ZM4.15966 16.5697V11.7885C4.15966 11.6884 4.1994 11.5925 4.27014 11.5217C4.34088 11.451 4.43681 11.4113 4.53685 11.4113H8.2131V16.9469H4.53685C4.43681 16.9469 4.34088 16.9071 4.27014 16.8364C4.1994 16.7657 4.15966 16.6697 4.15966 16.5697ZM17.3931 16.5697C17.3931 16.6697 17.3534 16.7657 17.2826 16.8364C17.2119 16.9071 17.1159 16.9469 17.0159 16.9469H13.3397V11.3847H17C17.1 11.3847 17.196 11.4244 17.2667 11.4952C17.3374 11.5659 17.3772 11.6619 17.3772 11.7619L17.3931 16.5697Z" fill="black"/>
<path d="M23.5663 11.5813C23.4136 11.3586 23.2091 11.1765 22.9703 11.0506C22.7315 10.9247 22.4656 10.8589 22.1957 10.8588H20.5275C20.2457 10.8588 19.9755 10.9707 19.7762 11.17C19.577 11.3692 19.465 11.6395 19.465 11.9213V16.3838C19.465 16.6656 19.577 16.9358 19.7762 17.1351C19.9755 17.3343 20.2457 17.4463 20.5275 17.4463H25.84C26.0095 17.4469 26.1759 17.4008 26.321 17.3132C26.4661 17.2256 26.5843 17.0998 26.6627 16.9496C26.7412 16.7993 26.7768 16.6304 26.7656 16.4613C26.7545 16.2922 26.6971 16.1293 26.5997 15.9906L23.5663 11.5813ZM26.2225 16.7291C26.1891 16.7947 26.1382 16.8499 26.0754 16.8883C26.0125 16.9268 25.9403 16.947 25.8666 16.9469H20.5541C20.4132 16.9469 20.2781 16.8909 20.1784 16.7913C20.0788 16.6917 20.0228 16.5565 20.0228 16.4156V11.9531C20.0228 11.8122 20.0788 11.6771 20.1784 11.5775C20.2781 11.4779 20.4132 11.4219 20.5541 11.4219H22.2222C22.4072 11.4219 22.5895 11.4669 22.7533 11.553C22.9171 11.639 23.0575 11.7636 23.1625 11.916L26.1907 16.3094C26.235 16.3694 26.261 16.4409 26.2658 16.5153C26.2705 16.5898 26.2536 16.664 26.2172 16.7291H26.2225Z" fill="black"/>
</g>
<defs>
<clipPath id="clip0_12_1207">
<rect width="34" height="34" fill="white"/>
</clipPath>
</defs>
</svg>
