<svg width="33" height="33" viewBox="0 0 33 33" fill="none" xmlns="http://www.w3.org/2000/svg">
<path d="M31.5 17.9996C31.1022 17.9996 30.7206 18.1577 30.4393 18.439C30.158 18.7203 30 19.1018 30 19.4996V25.8191C29.9988 26.9275 29.558 27.9901 28.7742 28.7739C27.9905 29.5576 26.9279 29.9984 25.8195 29.9996H7.1805C6.07213 29.9984 5.00949 29.5576 4.22576 28.7739C3.44202 27.9901 3.00119 26.9275 3 25.8191V19.4996C3 19.1018 2.84196 18.7203 2.56066 18.439C2.27936 18.1577 1.89782 17.9996 1.5 17.9996C1.10218 17.9996 0.720644 18.1577 0.43934 18.439C0.158035 18.7203 0 19.1018 0 19.4996V25.8191C0.00198538 27.7229 0.759138 29.5481 2.10531 30.8943C3.45149 32.2405 5.27672 32.9976 7.1805 32.9996H25.8195C27.7233 32.9976 29.5485 32.2405 30.8947 30.8943C32.2409 29.5481 32.998 27.7229 33 25.8191V19.4996C33 19.1018 32.842 18.7203 32.5607 18.439C32.2794 18.1577 31.8978 17.9996 31.5 17.9996Z" fill="black"/>
<path d="M8.56038 11.5602L14.9999 5.12068V23.9997C14.9999 24.3975 15.1579 24.779 15.4392 25.0603C15.7205 25.3416 16.1021 25.4997 16.4999 25.4997C16.8977 25.4997 17.2792 25.3416 17.5605 25.0603C17.8418 24.779 17.9999 24.3975 17.9999 23.9997V5.12068L24.4394 11.5602C24.7223 11.8334 25.1012 11.9846 25.4945 11.9812C25.8878 11.9778 26.264 11.82 26.5421 11.5419C26.8202 11.2638 26.978 10.8876 26.9814 10.4943C26.9848 10.101 26.8336 9.72208 26.5604 9.43918L17.5604 0.43918C17.2791 0.157973 16.8976 0 16.4999 0C16.1021 0 15.7207 0.157973 15.4394 0.43918L6.43938 9.43918C6.16614 9.72208 6.01495 10.101 6.01837 10.4943C6.02178 10.8876 6.17954 11.2638 6.45765 11.5419C6.73576 11.82 7.11198 11.9778 7.50528 11.9812C7.89857 11.9846 8.27748 11.8334 8.56038 11.5602Z" fill="black"/>
</svg>
