<svg width="32" height="32" viewBox="0 0 32 32" fill="none" xmlns="http://www.w3.org/2000/svg">
<g clip-path="url(#clip0_2_1310)">
<path d="M29.3405 11.3031H27.4973L17.997 1.80281C17.8943 0.791686 17.0379 6.10352e-05 16.0001 6.10352e-05C14.9624 6.10352e-05 14.106 0.791686 14.0032 1.80281L4.50288 11.3031H2.65951C1.19576 11.3031 0.00482178 12.494 0.00482178 13.9578V15.8968C0.00482178 16.1557 0.214697 16.3656 0.473572 16.3656C0.732509 16.3656 0.942322 16.1557 0.942322 15.8968V13.9578C0.942322 13.0109 1.71263 12.2406 2.65951 12.2406H29.3405C30.2873 12.2406 31.0577 13.0109 31.0577 13.9578V29.3454C31.0577 30.2922 30.2874 31.0626 29.3405 31.0626H2.65951C1.7127 31.0626 0.942322 30.2923 0.942322 29.3454V17.7718C0.942322 17.5129 0.732509 17.3031 0.473572 17.3031C0.214697 17.3031 0.00482178 17.5129 0.00482178 17.7718V29.3454C0.00482178 30.8092 1.1957 32.0001 2.65951 32.0001H29.3405C30.8043 32.0001 31.9952 30.8092 31.9952 29.3454V13.9578C31.9952 12.4941 30.8043 11.3031 29.3405 11.3031ZM16.0001 0.937561C16.59 0.937561 17.0699 1.41744 17.0699 2.00731C17.0699 2.59719 16.59 3.07706 16.0001 3.07706C15.4103 3.07706 14.9304 2.59719 14.9304 2.00731C14.9304 1.41744 15.4103 0.937561 16.0001 0.937561ZM5.8287 11.3032L14.2128 2.91906C14.5454 3.56869 15.2214 4.01456 16.0001 4.01456C16.7787 4.01456 17.4547 3.56862 17.7874 2.91906L26.1715 11.3032H5.8287Z" fill="black"/>
<path d="M26.0259 18.5921C23.5049 15.6749 19.8506 14.0018 16.0001 14.0018C12.1496 14.0018 8.49512 15.675 5.97394 18.5926C5.43794 19.213 5.5065 20.1538 6.12687 20.69C6.39694 20.9233 6.74206 21.0518 7.09869 21.0518C7.53131 21.0518 7.94156 20.8642 8.22419 20.5371C10.1799 18.2738 13.0142 16.9758 16.0001 16.9758C18.986 16.9758 21.8201 18.2736 23.7757 20.5366C24.0354 20.8371 24.3966 21.0186 24.7927 21.0475C25.1888 21.0761 25.5726 20.9491 25.8731 20.6895C26.4934 20.1533 26.562 19.2125 26.0259 18.5921ZM25.2601 19.9801C25.1491 20.0761 25.0077 20.1233 24.8609 20.1125C24.7146 20.1018 24.5811 20.0347 24.4851 19.9236C22.3512 17.4545 19.2586 16.0383 16.0002 16.0383C12.7416 16.0383 9.64887 17.4546 7.51494 19.9241C7.41044 20.045 7.25875 20.1143 7.09869 20.1143C7.00556 20.1143 6.86775 20.0911 6.73987 19.9806C6.51062 19.7825 6.48531 19.4348 6.68337 19.2055C9.02631 16.4943 12.4221 14.9393 16.0002 14.9393C19.5781 14.9393 22.9739 16.4941 25.3166 19.2051C25.5148 19.4343 25.4894 19.782 25.2601 19.9801Z" fill="black"/>
<path d="M23.4579 20.8114C21.582 18.6407 18.8638 17.3959 16.0002 17.3959C13.1364 17.3959 10.4181 18.6409 8.54211 20.8117C8.00611 21.4321 8.07468 22.373 8.69505 22.9091C8.96511 23.1425 9.31024 23.271 9.6668 23.271C10.0995 23.271 10.5097 23.0834 10.7925 22.7562C12.103 21.2397 14.0011 20.3699 16.0002 20.3699C17.9992 20.3699 19.8973 21.2395 21.2077 22.7559C21.4675 23.0564 21.8287 23.2379 22.2249 23.2667C22.6205 23.2957 23.0047 23.1684 23.3052 22.9087C23.6057 22.6491 23.7871 22.2879 23.8159 21.8917C23.8447 21.4955 23.7176 21.1119 23.4579 20.8114ZM22.8808 21.8235C22.8702 21.9699 22.8032 22.1034 22.692 22.1994C22.5809 22.2954 22.4392 22.3424 22.2929 22.3317C22.1465 22.3211 22.013 22.2539 21.917 22.1429C20.4284 20.4203 18.2717 19.4324 16.0002 19.4324C13.7285 19.4324 11.5718 20.4205 10.0831 22.1433C9.97855 22.2642 9.82686 22.3335 9.6668 22.3335C9.53524 22.3335 9.4078 22.286 9.30799 22.1997C9.07874 22.0016 9.05343 21.6539 9.25149 21.4247C10.9492 19.4601 13.409 18.3334 16.0002 18.3334C18.5912 18.3334 21.0509 19.46 22.7485 21.4243C22.8445 21.5354 22.8915 21.6771 22.8808 21.8235Z" fill="black"/>
<path d="M20.8899 23.0307C19.6593 21.6067 17.8771 20.79 16.0002 20.79C14.1233 20.79 12.341 21.6068 11.1104 23.0309C10.8507 23.3315 10.7236 23.7152 10.7524 24.1113C10.7813 24.5074 10.9627 24.8686 11.2633 25.1283C11.5333 25.3617 11.8784 25.4902 12.235 25.4902C12.6677 25.4902 13.0779 25.3025 13.3607 24.9755C14.0259 24.2057 14.9879 23.7642 16.0003 23.7642C17.0124 23.7642 17.9745 24.2056 18.6396 24.9753C18.8993 25.2758 19.2605 25.4572 19.6567 25.4861C20.0528 25.5152 20.4365 25.3878 20.737 25.1282C21.3574 24.592 21.4259 23.6512 20.8899 23.0307ZM20.124 24.4187C20.0129 24.5147 19.8711 24.5614 19.7248 24.551C19.5784 24.5403 19.4449 24.4732 19.349 24.3622C18.5056 23.3863 17.285 22.8265 16.0002 22.8265C14.7153 22.8265 13.4946 23.3864 12.6513 24.3625C12.5468 24.4834 12.3951 24.5527 12.235 24.5527C12.1034 24.5527 11.9759 24.5052 11.8761 24.4189C11.7651 24.323 11.6981 24.1895 11.6874 24.0432C11.6768 23.8968 11.7237 23.755 11.8197 23.6439C12.8721 22.426 14.3958 21.7275 16.0002 21.7275C17.6045 21.7275 19.1282 22.4259 20.1805 23.6436C20.3786 23.8729 20.3533 24.2206 20.124 24.4187Z" fill="black"/>
<path d="M16.0002 25.2025C14.8701 25.2025 13.9507 26.1218 13.9507 27.252C13.9507 28.3821 14.8701 29.3015 16.0002 29.3015C17.1302 29.3015 18.0497 28.3821 18.0497 27.252C18.0497 26.1218 17.1303 25.2025 16.0002 25.2025ZM16.0002 28.364C15.387 28.364 14.8882 27.8652 14.8882 27.252C14.8882 26.6388 15.3871 26.14 16.0002 26.14C16.6133 26.14 17.1122 26.6388 17.1122 27.252C17.1122 27.8652 16.6134 28.364 16.0002 28.364Z" fill="black"/>
</g>
<defs>
<clipPath id="clip0_2_1310">
<rect width="32" height="32" fill="white"/>
</clipPath>
</defs>
</svg>
